<?xml version="1.0" encoding="utf-8"?>
<!-- Generator: Adobe Illustrator 22.1.0, SVG Export Plug-In . SVG Version: 6.00 Build 0)  -->
<svg version="1.1" id="Livello_1" xmlns="http://www.w3.org/2000/svg" xmlns:xlink="http://www.w3.org/1999/xlink" x="0px" y="0px"
	 viewBox="0 0 860.2 799.7" style="enable-background:new 0 0 860.2 799.7;" xml:space="preserve">
<style type="text/css">
	.st0{fill:#111111;stroke:#111111;stroke-width:2;}
	.st1{opacity:0.4;fill:#9D77FC;enable-background:new    ;}
	.st2{enable-background:new    ;}
	.st3{fill:#FFFFFF;}
	.st4{fill:none;}
	.st5{fill:none;stroke:#FFFFFF;stroke-width:3;}
	.st6{fill:none;stroke:#FFFFFF;stroke-width:3;stroke-dasharray:19.6122,9.8061;}
	.st7{fill:none;stroke:#FFFFFF;stroke-width:2;}
</style>
<g id="Livello_1_1_">
	<rect x="-39" y="-14" class="st0" width="905.9" height="813.7"/>
</g>
<g id="FR_1_">
	<rect x="326" y="187.6" class="st1" width="11.5" height="458.3"/>
	<g class="st2">
		<path class="st3" d="M338.2,671.3h-9.8v-6h1.5v4.1h2.6v-3.1h1.5v3.1h4.2V671.3z"/>
		<path class="st3" d="M334.3,661.8h3.9v2h-9.8v-3.6c0-1.1,0.3-2,0.8-2.6s1.3-0.9,2.1-0.9c0.6,0,1.2,0.2,1.7,0.6
			c0.5,0.4,0.9,1,1.1,1.8l4-2.5v2.3l-3.9,2.3V661.8z M329.9,661.8h2.9v-1.6c0-0.5-0.1-0.9-0.4-1.1c-0.3-0.3-0.6-0.4-1-0.4
			s-0.8,0.1-1,0.4c-0.3,0.3-0.4,0.6-0.4,1.1V661.8z"/>
	</g>
</g>
<g id="SE">
	<rect x="768" y="95.9" class="st1" width="11.5" height="550"/>
	<g class="st2">
		<path class="st3" d="M771.8,667.7c0,0.4,0.1,0.7,0.3,1c0.2,0.2,0.5,0.4,0.8,0.4c0.4,0,0.6-0.1,0.8-0.3c0.2-0.2,0.4-0.4,0.5-0.7
			c0.1-0.3,0.2-0.6,0.3-1c0.1-0.4,0.2-0.7,0.3-1.1s0.3-0.7,0.4-1c0.2-0.3,0.4-0.5,0.8-0.7s0.8-0.3,1.2-0.3c0.8,0,1.5,0.3,2.1,1
			c0.6,0.6,0.9,1.5,0.9,2.5c0,1.1-0.2,1.9-0.7,2.6c-0.5,0.7-1.2,1-2.1,1V669c0.9-0.1,1.3-0.6,1.3-1.5c0-0.4-0.1-0.8-0.4-1.1
			c-0.2-0.3-0.5-0.4-0.9-0.4s-0.7,0.2-0.9,0.5s-0.4,0.8-0.5,1.3c-0.1,0.5-0.2,1-0.4,1.5c-0.2,0.5-0.4,0.9-0.8,1.3
			c-0.4,0.3-0.9,0.5-1.6,0.5c-0.9,0-1.6-0.3-2.1-1c-0.5-0.6-0.8-1.5-0.8-2.5s0.2-1.8,0.7-2.4c0.5-0.6,1.2-1,2.1-1v2.2
			c-0.4,0-0.7,0.2-0.9,0.4C772,667,771.8,667.3,771.8,667.7z"/>
		<path class="st3" d="M770.4,656.5h1.5v3.7h2.6v-3.2h1.5v3.2h2.7v-3.7h1.5v5.6h-9.8V656.5z"/>
	</g>
</g>
<g id="ES">
	<rect x="742" y="340.4" class="st1" width="11.5" height="305.6"/>
	<g class="st2">
		<path class="st3" d="M744.4,665.2h1.5v3.7h2.6v-3.2h1.5v3.2h2.7v-3.7h1.5v5.6h-9.8V665.2z"/>
		<path class="st3" d="M745.8,660c0,0.4,0.1,0.7,0.3,1c0.2,0.2,0.5,0.4,0.8,0.4c0.4,0,0.6-0.1,0.8-0.3c0.2-0.2,0.4-0.4,0.5-0.7
			c0.1-0.3,0.2-0.6,0.3-1c0.1-0.4,0.2-0.7,0.3-1.1s0.3-0.7,0.4-1c0.2-0.3,0.4-0.5,0.8-0.7s0.8-0.3,1.2-0.3c0.8,0,1.5,0.3,2.1,1
			c0.6,0.6,0.9,1.5,0.9,2.5c0,1.1-0.2,1.9-0.7,2.6c-0.5,0.7-1.2,1-2.1,1v-2.1c0.9-0.1,1.3-0.6,1.3-1.5c0-0.4-0.1-0.8-0.4-1.1
			c-0.2-0.3-0.5-0.4-0.9-0.4s-0.7,0.2-0.9,0.5s-0.4,0.8-0.5,1.3c-0.1,0.5-0.2,1-0.4,1.5c-0.2,0.5-0.4,0.9-0.8,1.3
			c-0.4,0.3-0.9,0.5-1.6,0.5c-0.9,0-1.6-0.3-2.1-1c-0.5-0.6-0.8-1.5-0.8-2.5s0.2-1.8,0.7-2.4c0.5-0.6,1.2-1,2.1-1v2.2
			c-0.4,0-0.7,0.2-0.9,0.4C746,659.3,745.8,659.6,745.8,660z"/>
	</g>
</g>
<g id="SI">
	<rect x="716" y="432" class="st1" width="11.5" height="213.9"/>
	<g class="st2">
		<path class="st3" d="M719.8,664.1c0,0.4,0.1,0.7,0.3,1c0.2,0.2,0.5,0.4,0.8,0.4c0.4,0,0.6-0.1,0.8-0.3c0.2-0.2,0.4-0.4,0.5-0.7
			c0.1-0.3,0.2-0.6,0.3-1c0.1-0.4,0.2-0.7,0.3-1.1s0.3-0.7,0.4-1c0.2-0.3,0.4-0.5,0.8-0.7s0.8-0.3,1.2-0.3c0.8,0,1.5,0.3,2.1,1
			c0.6,0.6,0.9,1.5,0.9,2.5c0,1.1-0.2,1.9-0.7,2.6c-0.5,0.7-1.2,1-2.1,1v-2.1c0.9-0.1,1.3-0.6,1.3-1.5c0-0.4-0.1-0.8-0.4-1.1
			c-0.2-0.3-0.5-0.4-0.9-0.4s-0.7,0.2-0.9,0.5s-0.4,0.8-0.5,1.3c-0.1,0.5-0.2,1-0.4,1.5c-0.2,0.5-0.4,0.9-0.8,1.3
			c-0.4,0.3-0.9,0.5-1.6,0.5c-0.9,0-1.6-0.3-2.1-1c-0.5-0.6-0.8-1.5-0.8-2.5s0.2-1.8,0.7-2.4c0.5-0.6,1.2-1,2.1-1v2.2
			c-0.4,0-0.7,0.2-0.9,0.4C720,663.4,719.8,663.7,719.8,664.1z"/>
		<path class="st3" d="M728.2,658.5h-9.8v-2h9.8V658.5z"/>
	</g>
</g>
<g id="SK">
	<rect x="690" y="126.5" class="st1" width="11.5" height="519.4"/>
	<g class="st2">
		<path class="st3" d="M693.8,669.5c0,0.4,0.1,0.7,0.3,1c0.2,0.2,0.5,0.4,0.8,0.4c0.4,0,0.6-0.1,0.8-0.3c0.2-0.2,0.4-0.4,0.5-0.7
			c0.1-0.3,0.2-0.6,0.3-1c0.1-0.4,0.2-0.7,0.3-1.1s0.3-0.7,0.4-1c0.2-0.3,0.4-0.5,0.8-0.7s0.8-0.3,1.2-0.3c0.8,0,1.5,0.3,2.1,1
			c0.6,0.6,0.9,1.5,0.9,2.5c0,1.1-0.2,1.9-0.7,2.6c-0.5,0.7-1.2,1-2.1,1v-2.1c0.9-0.1,1.3-0.6,1.3-1.5c0-0.4-0.1-0.8-0.4-1.1
			c-0.2-0.3-0.5-0.4-0.9-0.4s-0.7,0.2-0.9,0.5c-0.2,0.3-0.4,0.8-0.5,1.3s-0.2,1-0.4,1.5c-0.2,0.5-0.4,0.9-0.8,1.3
			c-0.4,0.3-0.9,0.5-1.6,0.5c-0.9,0-1.6-0.3-2.1-1c-0.5-0.6-0.8-1.5-0.8-2.5s0.2-1.8,0.7-2.4c0.5-0.6,1.2-1,2.1-1v2.2
			c-0.4,0-0.7,0.2-0.9,0.4C694,668.7,693.8,669.1,693.8,669.5z"/>
		<path class="st3" d="M702.2,661.9v2h-9.8v-2h4.4l-4.4-3.5v-2.6l4.9,4.2l4.9-4.2v2.6l-4.3,3.5H702.2z"/>
	</g>
</g>
<g id="RO">
	<rect x="664" y="493.2" class="st1" width="11.5" height="152.8"/>
	<g class="st2">
		<path class="st3" d="M672.3,673h3.9v2h-9.8v-3.6c0-1.1,0.3-2,0.8-2.6s1.3-0.9,2.1-0.9c0.6,0,1.2,0.2,1.7,0.6
			c0.5,0.4,0.9,1,1.1,1.8l4-2.5v2.3l-3.9,2.3V673z M667.9,673h2.9v-1.6c0-0.5-0.1-0.9-0.4-1.1c-0.3-0.3-0.6-0.4-1-0.4
			s-0.8,0.1-1,0.4c-0.3,0.3-0.4,0.6-0.4,1.1V673z"/>
		<path class="st3" d="M676.3,661.4c0,1.4-0.5,2.6-1.4,3.6c-0.9,1-2.1,1.4-3.6,1.4s-2.6-0.5-3.6-1.4s-1.4-2.2-1.4-3.6
			s0.5-2.6,1.4-3.5s2.1-1.4,3.6-1.4s2.6,0.5,3.6,1.4C675.8,658.8,676.3,660,676.3,661.4z M673.6,659.3c-0.6-0.5-1.4-0.8-2.3-0.8
			s-1.7,0.3-2.3,0.8c-0.6,0.6-0.9,1.3-0.9,2.2s0.3,1.6,0.9,2.2c0.6,0.6,1.4,0.8,2.3,0.8s1.7-0.3,2.3-0.8s0.9-1.3,0.9-2.2
			S674.2,659.8,673.6,659.3z"/>
	</g>
</g>
<g id="PT">
	<rect x="638" y="462.6" class="st1" width="11.5" height="183.3"/>
	<g class="st2">
		<path class="st3" d="M645.3,665.1c0.3,0.3,0.6,0.6,0.7,1.1c0.2,0.5,0.3,1,0.3,1.7v1.6h3.9v2h-9.8v-3.6c0-1.1,0.3-2,0.8-2.6
			s1.2-0.9,2-0.9C644,664.4,644.7,664.6,645.3,665.1z M644.8,669.5v-1.6c0-0.5-0.1-0.9-0.4-1.1c-0.3-0.3-0.6-0.4-1-0.4
			s-0.8,0.1-1,0.4c-0.3,0.3-0.4,0.6-0.4,1.1v1.6H644.8z"/>
		<path class="st3" d="M641.9,663.5h-1.5v-7.2h1.5v2.6h8.3v2h-8.3V663.5z"/>
	</g>
</g>
<g id="PL">
	<rect x="612" y="432" class="st1" width="11.5" height="213.9"/>
	<g class="st2">
		<path class="st3" d="M619.3,663.8c0.3,0.3,0.6,0.6,0.7,1.1s0.3,1,0.3,1.7v1.6h3.9v2h-9.8v-3.6c0-1.1,0.3-2,0.8-2.6s1.2-0.9,2-0.9
			C618,663,618.7,663.3,619.3,663.8z M618.8,668.2v-1.6c0-0.5-0.1-0.9-0.4-1.1c-0.3-0.3-0.6-0.4-1-0.4s-0.8,0.1-1,0.4
			c-0.3,0.3-0.4,0.6-0.4,1.1v1.6H618.8z"/>
		<path class="st3" d="M614.4,661.5v-2h8.3v-3.1h1.5v5.1H614.4z"/>
	</g>
</g>
<g id="NL">
	<rect x="586" y="126.5" class="st1" width="11.5" height="519.4"/>
	<g class="st2">
		<path class="st3" d="M588.4,665.5v-2h9.8v2l-6.8,4.4h6.8v2h-9.8v-2l6.8-4.4H588.4z"/>
		<path class="st3" d="M588.4,661.4v-2h8.3v-3.1h1.5v5.1H588.4z"/>
	</g>
</g>
<g id="MT">
	<rect x="560" y="401.5" class="st1" width="11.5" height="244.4"/>
	<g class="st2">
		<path class="st3" d="M562.4,664.9h9.8v2H566l6.2,2.7v1.4l-6.1,2.6h6.1v2h-9.8v-2.2l7.2-3.1l-7.2-3.1V664.9z"/>
		<path class="st3" d="M563.9,663.3h-1.5v-7.2h1.5v2.6h8.3v2h-8.3V663.3z"/>
	</g>
</g>
<g id="LU">
	<rect x="534" y="279.3" class="st1" width="11.5" height="366.7"/>
	<g class="st2">
		<path class="st3" d="M536.4,671.3v-2h8.3v-3.1h1.5v5.1H536.4z"/>
		<path class="st3" d="M542.4,664.9h-6v-2h6c0.7,0,1.2-0.2,1.5-0.5c0.3-0.3,0.5-0.8,0.5-1.5c0-0.6-0.2-1.1-0.5-1.5
			c-0.3-0.3-0.9-0.5-1.5-0.5h-6v-2h6c1.2,0,2.2,0.4,2.8,1.2c0.7,0.8,1,1.7,1,2.8c0,1.1-0.3,2-1,2.8
			C544.6,664.5,543.7,664.9,542.4,664.9z"/>
	</g>
</g>
<g id="LT">
	<rect x="508" y="462.6" class="st1" width="11.5" height="183.3"/>
	<g class="st2">
		<path class="st3" d="M510.4,669.5v-2h8.3v-3.1h1.5v5.1H510.4z"/>
		<path class="st3" d="M511.9,663.7h-1.5v-7.2h1.5v2.6h8.3v2h-8.3V663.7z"/>
	</g>
</g>
<g id="LV">
	<rect x="482" y="309.8" class="st1" width="11.5" height="336.1"/>
	<g class="st2">
		<path class="st3" d="M484.4,671.6v-2h8.3v-3.1h1.5v5.1H484.4z"/>
		<path class="st3" d="M494.2,662.4l-9.8,3.6v-2.1l7.8-2.7l-7.8-2.7v-2.1l9.8,3.6V662.4z"/>
	</g>
</g>
<g id="IT">
	<rect x="456" y="340.4" class="st1" width="11.5" height="305.6"/>
	<g class="st2">
		<path class="st3" d="M468.2,668.2h-9.8v-2h9.8V668.2z"/>
		<path class="st3" d="M459.9,664.7h-1.5v-7.2h1.5v2.6h8.3v2h-8.3V664.7z"/>
	</g>
</g>
<g id="IE">
	<rect x="430" y="340.4" class="st1" width="11.5" height="305.6"/>
	<g class="st2">
		<path class="st3" d="M442.2,666.4h-9.8v-2h9.8V666.4z"/>
		<path class="st3" d="M432.4,656.7h1.5v3.7h2.6v-3.2h1.5v3.2h2.7v-3.7h1.5v5.6h-9.8V656.7z"/>
	</g>
</g>
<g id="HU">
	<rect x="404" y="432" class="st1" width="11.5" height="213.9"/>
	<g class="st2">
		<path class="st3" d="M406.4,668.6v-2h9.8v2H412v4.2h4.2v2h-9.8v-2h4.1v-4.2H406.4z"/>
		<path class="st3" d="M412.4,664.6h-6v-2h6c0.7,0,1.2-0.2,1.5-0.5c0.3-0.3,0.5-0.8,0.5-1.5s-0.2-1.1-0.5-1.5
			c-0.3-0.3-0.9-0.5-1.5-0.5h-6v-2h6c1.2,0,2.2,0.4,2.8,1.2c0.7,0.8,1,1.7,1,2.8c0,1.1-0.3,2-1,2.8
			C414.6,664.2,413.7,664.6,412.4,664.6z"/>
	</g>
</g>
<g id="EL">
	<rect x="378" y="401.5" class="st1" width="11.5" height="244.4"/>
	<g class="st2">
		<path class="st3" d="M380.4,663.4h1.5v3.7h2.6v-3.2h1.5v3.2h2.7v-3.7h1.5v5.6h-9.8V663.4z"/>
		<path class="st3" d="M380.4,661.4v-2h8.3v-3.1h1.5v5.1H380.4z"/>
	</g>
</g>
<g id="DE">
	<rect x="352" y="248.7" class="st1" width="11.5" height="397.2"/>
	<g class="st2">
		<path class="st3" d="M354.4,669.5c0-1.6,0.4-2.8,1.3-3.8c0.9-1,2.1-1.4,3.6-1.4s2.7,0.5,3.5,1.4s1.3,2.2,1.3,3.8v3.3h-9.8V669.5z
			 M362.7,670.8v-1.3c0-1-0.3-1.8-0.9-2.4c-0.6-0.6-1.4-0.9-2.5-0.9s-1.9,0.3-2.5,0.9c-0.6,0.6-0.9,1.4-0.9,2.4v1.3H362.7z"/>
		<path class="st3" d="M354.4,657h1.5v3.7h2.6v-3.2h1.5v3.2h2.7V657h1.5v5.6h-9.8V657z"/>
	</g>
</g>
<g id="FR">
</g>
<g id="FI">
	<rect x="300" y="218.2" class="st1" width="11.5" height="427.8"/>
	<g class="st2">
		<path class="st3" d="M312.2,666.5h-9.8v-6h1.5v4.1h2.6v-3.1h1.5v3.1h4.2V666.5z"/>
		<path class="st3" d="M312.2,658.9h-9.8v-2h9.8V658.9z"/>
	</g>
</g>
<g id="EE">
	<rect x="274" y="309.8" class="st1" width="11.5" height="336.1"/>
	<g class="st2">
		<path class="st3" d="M276.4,664.3h1.5v3.7h2.6v-3.2h1.5v3.2h2.7v-3.7h1.5v5.6h-9.8V664.3z"/>
		<path class="st3" d="M276.4,656.7h1.5v3.7h2.6v-3.2h1.5v3.2h2.7v-3.7h1.5v5.6h-9.8V656.7z"/>
	</g>
</g>
<g id="DK">
	<rect x="248" y="95.9" class="st1" width="11.5" height="550"/>
	<g class="st2">
		<path class="st3" d="M250.4,671.2c0-1.6,0.4-2.8,1.3-3.8c0.9-1,2.1-1.4,3.6-1.4s2.7,0.5,3.5,1.4s1.3,2.2,1.3,3.8v3.3h-9.8V671.2z
			 M258.7,672.6v-1.3c0-1-0.3-1.8-0.9-2.4c-0.6-0.6-1.4-0.9-2.5-0.9s-1.9,0.3-2.5,0.9c-0.6,0.6-0.9,1.4-0.9,2.4v1.3H258.7z"/>
		<path class="st3" d="M260.2,662.5v2h-9.8v-2h4.4l-4.4-3.5v-2.6l4.9,4.2l4.9-4.2v2.6l-4.3,3.5H260.2z"/>
	</g>
</g>
<g id="CZ">
	<rect x="222" y="432" class="st1" width="11.5" height="213.9"/>
	<g class="st2">
		<path class="st3" d="M232.8,673c-0.9,1-2.1,1.4-3.6,1.4c-1.4,0-2.6-0.5-3.6-1.4c-0.9-1-1.4-2.1-1.4-3.5c0-1.1,0.3-2,0.8-2.8
			c0.5-0.8,1.3-1.4,2.3-1.8v2.4c-0.9,0.4-1.3,1.2-1.3,2.2c0,0.9,0.3,1.6,0.9,2.2c0.6,0.6,1.4,0.8,2.3,0.8s1.7-0.3,2.3-0.8
			s0.9-1.3,0.9-2.2c0-1-0.4-1.8-1.3-2.2v-2.4c1,0.4,1.7,0.9,2.3,1.8c0.5,0.8,0.8,1.8,0.8,2.8C234.3,670.9,233.8,672.1,232.8,673z"/>
		<path class="st3" d="M224.4,656.8h1.5l6.7,4.4v-4.4h1.5v6.7h-1.5l-6.7-4.4v4.4h-1.5V656.8z"/>
	</g>
</g>
<g id="CY">
	<rect x="196" y="432" class="st1" width="11.5" height="213.9"/>
	<g class="st2">
		<path class="st3" d="M206.8,674c-0.9,1-2.1,1.4-3.6,1.4c-1.4,0-2.6-0.5-3.6-1.4c-0.9-1-1.4-2.1-1.4-3.5c0-1.1,0.3-2,0.8-2.8
			c0.5-0.8,1.3-1.4,2.3-1.8v2.4c-0.9,0.4-1.3,1.2-1.3,2.2c0,0.9,0.3,1.6,0.9,2.2c0.6,0.6,1.4,0.8,2.3,0.8s1.7-0.3,2.3-0.8
			s0.9-1.3,0.9-2.2c0-1-0.4-1.8-1.3-2.2v-2.4c1,0.4,1.7,0.9,2.3,1.8c0.5,0.8,0.8,1.8,0.8,2.8C208.3,671.9,207.8,673.1,206.8,674z"/>
		<path class="st3" d="M208.2,659.7v2h-3.4l-6.4,3.3v-2.2l4.6-2.1l-4.6-2.1v-2.2l6.4,3.3H208.2z"/>
	</g>
</g>
<g id="HR">
	<rect x="170" y="279.3" class="st1" width="11.5" height="366.7"/>
	<g class="st2">
		<path class="st3" d="M172.4,667.7v-2h9.8v2H178v4.2h4.2v2h-9.8v-2h4.1v-4.2H172.4z"/>
		<path class="st3" d="M178.3,661.6h3.9v2h-9.8V660c0-1.1,0.3-2,0.8-2.6s1.3-0.9,2.1-0.9c0.6,0,1.2,0.2,1.7,0.6
			c0.5,0.4,0.9,1,1.1,1.8l4-2.5v2.3l-3.9,2.3V661.6z M173.9,661.6h2.9V660c0-0.5-0.1-0.9-0.4-1.1c-0.3-0.3-0.6-0.4-1-0.4
			s-0.8,0.1-1,0.4c-0.3,0.3-0.4,0.6-0.4,1.1V661.6z"/>
	</g>
</g>
<g id="BG">
	<rect x="144" y="401.5" class="st1" width="11.5" height="244.4"/>
	<g class="st2">
		<path class="st3" d="M146.4,674.9v-4c0-1,0.2-1.8,0.7-2.4c0.5-0.6,1.1-0.9,1.8-0.9c1.1,0,1.8,0.6,2.2,1.9c0.1-0.6,0.4-1.2,0.8-1.5
			s1-0.6,1.6-0.6c0.8,0,1.4,0.3,1.9,0.9c0.5,0.6,0.7,1.4,0.7,2.4v4.2H146.4z M147.9,672.9h2.5v-1.8c0-0.4-0.1-0.8-0.3-1
			c-0.2-0.3-0.5-0.4-0.9-0.4c-0.4,0-0.7,0.1-0.9,0.4c-0.2,0.3-0.3,0.6-0.3,1V672.9z M154.7,672.9v-2c0-0.4-0.1-0.8-0.4-1.1
			s-0.6-0.4-1-0.4c-0.4,0-0.8,0.1-1,0.4c-0.2,0.3-0.4,0.6-0.4,1.1v2H154.7z"/>
		<path class="st3" d="M154.8,664.9c-0.9,1-2.1,1.4-3.6,1.4c-1.4,0-2.6-0.5-3.6-1.4c-0.9-1-1.4-2.1-1.4-3.5c0-1.1,0.3-2,0.8-2.8
			c0.5-0.8,1.3-1.4,2.3-1.8v2.4c-0.9,0.4-1.3,1.2-1.3,2.2c0,0.9,0.3,1.6,0.9,2.2c0.6,0.6,1.4,0.8,2.3,0.8s1.7-0.3,2.3-0.8
			c0.6-0.6,0.9-1.2,0.9-2c0-0.8-0.2-1.4-0.6-1.9c-0.4-0.5-0.9-0.7-1.6-0.9v3.2h-1.5v-5.4h1.5c1.1,0.2,2,0.7,2.8,1.6s1.2,2,1.2,3.3
			S155.8,663.9,154.8,664.9z"/>
	</g>
</g>
<g id="UK">
	<rect x="794" y="248.7" class="st1" width="11.5" height="397.2"/>
	<g class="st2">
		<path class="st3" d="M802.4,674h-6v-2h6c0.7,0,1.2-0.2,1.5-0.5c0.3-0.3,0.5-0.8,0.5-1.5c0-0.6-0.2-1.1-0.5-1.5
			c-0.3-0.3-0.9-0.5-1.5-0.5h-6v-2h6c1.2,0,2.2,0.4,2.8,1.2c0.7,0.8,1,1.7,1,2.8c0,1.1-0.3,2-1,2.8C804.6,673.6,803.7,674,802.4,674
			z"/>
		<path class="st3" d="M806.2,662v2h-9.8v-2h4.4l-4.4-3.5v-2.6l4.9,4.2l4.9-4.2v2.6l-4.3,3.5H806.2z"/>
	</g>
</g>
<g id="BE">
	<rect x="118" y="248.7" class="st1" width="11.5" height="397.2"/>
	<g class="st2">
		<path class="st3" d="M125.9,664.7c0.4-0.4,1-0.5,1.6-0.5c0.8,0,1.5,0.3,2,0.8c0.5,0.6,0.7,1.4,0.7,2.4v4.2h-9.9v-4.2
			c0-1,0.2-1.8,0.7-2.3c0.4-0.5,1.1-0.8,1.8-0.8c0.6,0,1.1,0.2,1.5,0.5s0.6,0.7,0.8,1.3C125.2,665.5,125.5,665,125.9,664.7z
			 M124.4,669.7v-1.8c0-0.5-0.1-0.9-0.3-1.1c-0.2-0.3-0.5-0.4-0.9-0.4s-0.7,0.1-1,0.4c-0.2,0.3-0.3,0.6-0.3,1.2v1.8h2.5V669.7z
			 M128.2,666.6c-0.2-0.3-0.6-0.4-1-0.4s-0.8,0.1-1,0.4c-0.2,0.3-0.4,0.7-0.4,1.2v1.9h2.7v-1.9C128.6,667.3,128.4,666.9,128.2,666.6
			z"/>
		<path class="st3" d="M121.9,660.8h2.6v-3.5h1.5v3.5h2.7v-3.9h1.6v5.9h-9.9v-5.9h1.6L121.9,660.8L121.9,660.8z"/>
	</g>
</g>
<g id="AU">
	<rect x="92" y="401.5" class="st1" width="11.5" height="244.4"/>
	<g class="st2">
		<path class="st3" d="M104.2,668.3l-1.8,0.6v3.8l1.8,0.6v2.1l-9.8-3.5v-2.3l9.8-3.4V668.3z M100.8,672.2v-2.8l-4.1,1.4L100.8,672.2
			z"/>
		<path class="st3" d="M100.4,664.8h-6v-2h6c0.7,0,1.2-0.2,1.5-0.5c0.3-0.3,0.5-0.8,0.5-1.5s-0.2-1.1-0.5-1.5
			c-0.3-0.3-0.9-0.5-1.5-0.5h-6v-2h6c1.2,0,2.2,0.4,2.8,1.2c0.7,0.8,1,1.7,1,2.8s-0.3,2-1,2.8C102.6,664.4,101.7,664.8,100.4,664.8z
			"/>
	</g>
</g>
<path id="SVGID_x5F_1_x5F_" class="st4" d="M-33.1,294.1h742.2"/>
<g class="st2">
</g>
<g class="st2">
</g>
<g class="st2">
	<path class="st3" d="M257.8,280.1v2.2h-5.2v3.7h4.6v2.2h-4.6v3.9h5.2v2.2h-8.1v-14H257.8z"/>
</g>
<g class="st2">
	<path class="st3" d="M260.2,288.7v-8.6h2.8v8.6c0,1,0.2,1.7,0.7,2.2c0.5,0.5,1.2,0.7,2.1,0.7s1.6-0.2,2.1-0.7
		c0.5-0.5,0.7-1.2,0.7-2.2v-8.6h2.8v8.6c0,1.8-0.6,3.1-1.7,4.1c-1.1,1-2.5,1.4-4,1.4c-1.6,0-2.9-0.5-4-1.4
		C260.7,291.9,260.2,290.5,260.2,288.7z"/>
</g>
<g class="st2">
</g>
<g class="st2">
	<path class="st3" d="M287.4,294.1l-0.9-2.6h-5.4l-0.9,2.6h-3l4.9-14h3.3l4.9,14H287.4z M281.8,289.3h4l-2-5.8L281.8,289.3z"/>
</g>
<g class="st2">
	<path class="st3" d="M296.2,294.1l-5.1-14h3l3.8,11.1l3.8-11.1h3l-5.1,14H296.2z"/>
</g>
<g class="st2">
	<path class="st3" d="M314.5,280.1v2.2h-5.2v3.7h4.6v2.2h-4.6v3.9h5.2v2.2h-8.1v-14H314.5z"/>
</g>
<g class="st2">
	<path class="st3" d="M319.8,288.5v5.6h-2.8v-14h5.1c1.6,0,2.9,0.4,3.7,1.2c0.9,0.8,1.3,1.8,1.3,3c0,0.9-0.3,1.7-0.8,2.5
		s-1.4,1.3-2.5,1.6l3.6,5.7H324l-3.3-5.6H319.8z M319.8,282.3v4.1h2.3c0.7,0,1.2-0.2,1.6-0.5c0.4-0.4,0.6-0.9,0.6-1.5
		s-0.2-1.1-0.6-1.5c-0.4-0.4-0.9-0.5-1.6-0.5H319.8z"/>
</g>
<g class="st2">
	<path class="st3" d="M338.4,294.1l-0.9-2.6h-5.4l-0.9,2.6h-3l4.9-14h3.3l4.9,14H338.4z M332.8,289.3h4l-2-5.8L332.8,289.3z"/>
</g>
<g class="st2">
	<path class="st3" d="M344.6,292.2c-1.4-1.3-2.1-3.1-2.1-5.1c0-2.1,0.7-3.8,2.1-5.1s3.1-2,5.1-2c1.5,0,2.9,0.4,4.1,1.2
		c1.2,0.8,2,1.9,2.5,3.3h-3.4c-0.6-1.2-1.7-1.8-3.2-1.8c-1.3,0-2.3,0.4-3.1,1.2c-0.8,0.8-1.2,1.9-1.2,3.3s0.4,2.5,1.2,3.3
		c0.8,0.8,1.8,1.2,2.9,1.2s2.1-0.3,2.7-0.8c0.7-0.6,1.1-1.3,1.2-2.3h-4.6v-2.1h7.7v2.1c-0.2,1.5-1,2.8-2.2,4
		c-1.3,1.1-2.8,1.7-4.7,1.7S346,293.5,344.6,292.2z"/>
</g>
<g class="st2">
	<path class="st3" d="M366.8,280.1v2.2h-5.2v3.7h4.6v2.2h-4.6v3.9h5.2v2.2h-8.1v-14H366.8z"/>
</g>
<g class="st2">
</g>
<g>
</g>
<g>
	<line class="st4" x1="69" y1="309.8" x2="834.3" y2="309.8"/>
	<g>
		<line class="st5" x1="69" y1="309.8" x2="79" y2="309.8"/>
		<line class="st6" x1="88.8" y1="309.8" x2="819.4" y2="309.8"/>
		<line class="st5" x1="824.3" y1="309.8" x2="834.3" y2="309.8"/>
	</g>
</g>
<line class="st7" x1="68.3" y1="645.7" x2="25.8" y2="645.7"/>
<g class="st2">
	<path class="st3" d="M25.9,636.7c0-3.4,1.3-5.1,3.8-5.1c2.5,0,3.8,1.7,3.8,5.1c0,3.4-1.3,5.1-3.8,5.1
		C27.1,641.8,25.9,640.1,25.9,636.7z M30.5,633.6c-0.2-0.1-0.5-0.2-0.8-0.2s-0.6,0.1-0.8,0.2s-0.4,0.3-0.5,0.5
		c-0.1,0.2-0.2,0.4-0.3,0.7c-0.1,0.3-0.1,0.6-0.1,0.9c0,0.3,0,0.6,0,1c0,0.4,0,0.7,0,1s0.1,0.6,0.1,0.9c0.1,0.3,0.2,0.6,0.3,0.7
		c0.1,0.2,0.3,0.3,0.5,0.5c0.2,0.1,0.5,0.2,0.8,0.2s0.6-0.1,0.8-0.2c0.2-0.1,0.4-0.3,0.5-0.5s0.2-0.4,0.3-0.7
		c0.1-0.3,0.1-0.6,0.1-0.9s0-0.6,0-1c0-0.4,0-0.7,0-1c0-0.3-0.1-0.6-0.1-0.9c-0.1-0.3-0.2-0.5-0.3-0.7S30.7,633.7,30.5,633.6z"/>
	<path class="st3" d="M35.3,635.7c-0.4-0.4-0.6-1-0.6-1.7s0.2-1.2,0.6-1.6c0.4-0.4,0.9-0.6,1.6-0.6c0.6,0,1.2,0.2,1.6,0.6
		c0.4,0.4,0.6,0.9,0.6,1.6s-0.2,1.3-0.6,1.7c-0.4,0.4-0.9,0.6-1.6,0.6S35.7,636.1,35.3,635.7z M35.8,641.8l5.5-9.8h1.9l-5.5,9.8
		H35.8z M37.7,634.1c0-0.7-0.3-1.1-0.8-1.1c-0.5,0-0.8,0.4-0.8,1.1c0,0.7,0.3,1.1,0.8,1.1C37.4,635.2,37.7,634.8,37.7,634.1z
		 M42.2,641.9c-0.7,0-1.2-0.2-1.6-0.6c-0.4-0.4-0.6-0.9-0.6-1.7c0-0.7,0.2-1.3,0.6-1.7c0.4-0.4,0.9-0.6,1.6-0.6
		c0.6,0,1.2,0.2,1.6,0.6c0.4,0.4,0.6,0.9,0.6,1.7c0,0.7-0.2,1.3-0.6,1.7S42.8,641.9,42.2,641.9z M42.9,639.7c0-0.7-0.3-1.1-0.8-1.1
		c-0.5,0-0.8,0.4-0.8,1.1c0,0.7,0.3,1.1,0.8,1.1C42.7,640.8,42.9,640.4,42.9,639.7z"/>
</g>
<line class="st7" x1="68.3" y1="31.5" x2="25.7" y2="31.5"/>
<line class="st7" x1="68.3" y1="186" x2="25.7" y2="186"/>
<line class="st7" x1="68.3" y1="338.8" x2="25.8" y2="338.8"/>
<g class="st2">
	<path class="st3" d="M25.8,477.4h6.3v1.7h-4.5v2.3c0.2-0.2,0.5-0.4,0.8-0.5c0.3-0.1,0.8-0.2,1.3-0.2c0.5,0,1,0.1,1.4,0.3
		s0.8,0.5,1,0.8c0.5,0.7,0.7,1.4,0.7,2.2c0,1.1-0.3,1.9-0.9,2.6c-0.6,0.6-1.5,1-2.6,1c-1.1,0-2-0.3-2.6-0.8c-0.6-0.5-1-1.2-1.1-2
		h1.9c0.1,0.4,0.3,0.7,0.6,0.9c0.3,0.2,0.7,0.3,1.2,0.3c0.5,0,0.9-0.2,1.2-0.5c0.3-0.3,0.4-0.8,0.4-1.4s-0.1-1-0.4-1.3
		s-0.7-0.5-1.1-0.5c-0.9,0-1.4,0.4-1.7,1.1h-1.9V477.4z"/>
	<path class="st3" d="M34.7,481.6c-0.4-0.4-0.6-1-0.6-1.7s0.2-1.2,0.6-1.6c0.4-0.4,0.9-0.6,1.6-0.6c0.6,0,1.2,0.2,1.6,0.6
		c0.4,0.4,0.6,0.9,0.6,1.6s-0.2,1.3-0.6,1.7c-0.4,0.4-0.9,0.6-1.6,0.6S35.1,482,34.7,481.6z M35.2,487.7l5.5-9.8h1.9l-5.5,9.8H35.2z
		 M37.1,480c0-0.7-0.3-1.1-0.8-1.1c-0.5,0-0.8,0.4-0.8,1.1c0,0.7,0.3,1.1,0.8,1.1C36.8,481,37.1,480.7,37.1,480z M41.6,487.8
		c-0.7,0-1.2-0.2-1.6-0.6c-0.4-0.4-0.6-0.9-0.6-1.7c0-0.7,0.2-1.3,0.6-1.7c0.4-0.4,0.9-0.6,1.6-0.6c0.6,0,1.2,0.2,1.6,0.6
		c0.4,0.4,0.6,0.9,0.6,1.7c0,0.7-0.2,1.3-0.6,1.7S42.2,487.8,41.6,487.8z M42.3,485.6c0-0.7-0.3-1.1-0.8-1.1c-0.5,0-0.8,0.4-0.8,1.1
		c0,0.7,0.3,1.1,0.8,1.1C42.1,486.6,42.3,486.3,42.3,485.6z"/>
</g>
<g class="st2">
	<path class="st3" d="M27.7,334.9v-8.1h-1.5v-1.8h3.5v9.9H27.7z"/>
	<path class="st3" d="M31.9,329.8c0-3.4,1.3-5.1,3.8-5.1c2.5,0,3.8,1.7,3.8,5.1c0,3.4-1.3,5.1-3.8,5.1
		C33.1,334.9,31.9,333.2,31.9,329.8z M36.5,326.7c-0.2-0.1-0.5-0.2-0.8-0.2s-0.6,0.1-0.8,0.2s-0.4,0.3-0.5,0.5
		c-0.1,0.2-0.2,0.4-0.3,0.7c-0.1,0.3-0.1,0.6-0.1,0.9c0,0.3,0,0.6,0,1c0,0.4,0,0.7,0,1s0.1,0.6,0.1,0.9c0.1,0.3,0.2,0.6,0.3,0.7
		c0.1,0.2,0.3,0.3,0.5,0.5c0.2,0.1,0.5,0.2,0.8,0.2s0.6-0.1,0.8-0.2c0.2-0.1,0.4-0.3,0.5-0.5s0.2-0.4,0.3-0.7
		c0.1-0.3,0.1-0.6,0.1-0.9s0-0.6,0-1c0-0.4,0-0.7,0-1c0-0.3-0.1-0.6-0.1-0.9c-0.1-0.3-0.2-0.5-0.3-0.7S36.7,326.8,36.5,326.7z"/>
	<path class="st3" d="M41.3,328.8c-0.4-0.4-0.6-1-0.6-1.7s0.2-1.2,0.6-1.6c0.4-0.4,0.9-0.6,1.6-0.6c0.6,0,1.2,0.2,1.6,0.6
		c0.4,0.4,0.6,0.9,0.6,1.6s-0.2,1.3-0.6,1.7c-0.4,0.4-0.9,0.6-1.6,0.6S41.7,329.2,41.3,328.8z M41.8,334.9l5.5-9.8h1.9l-5.5,9.8
		H41.8z M43.7,327.2c0-0.7-0.3-1.1-0.8-1.1c-0.5,0-0.8,0.4-0.8,1.1c0,0.7,0.3,1.1,0.8,1.1C43.4,328.3,43.7,327.9,43.7,327.2z
		 M48.1,335c-0.7,0-1.2-0.2-1.6-0.6c-0.4-0.4-0.6-0.9-0.6-1.7c0-0.7,0.2-1.3,0.6-1.7c0.4-0.4,0.9-0.6,1.6-0.6c0.6,0,1.2,0.2,1.6,0.6
		c0.4,0.4,0.6,0.9,0.6,1.7c0,0.7-0.2,1.3-0.6,1.7S48.8,335,48.1,335z M48.9,332.8c0-0.7-0.3-1.1-0.8-1.1c-0.5,0-0.8,0.4-0.8,1.1
		c0,0.7,0.3,1.1,0.8,1.1C48.7,333.9,48.9,333.5,48.9,332.8z"/>
</g>
<g class="st2">
	<path class="st3" d="M27.7,182.1V174h-1.5v-1.8h3.5v9.9H27.7z"/>
	<path class="st3" d="M32.4,171.9h6.3v1.7h-4.5v2.3c0.2-0.2,0.5-0.4,0.8-0.5c0.3-0.1,0.8-0.2,1.3-0.2c0.5,0,1,0.1,1.4,0.3
		s0.8,0.5,1,0.8c0.5,0.7,0.7,1.4,0.7,2.2c0,1.1-0.3,1.9-0.9,2.6c-0.6,0.6-1.5,1-2.6,1c-1.1,0-2-0.3-2.6-0.8c-0.6-0.5-1-1.2-1.1-2
		h1.9c0.1,0.4,0.3,0.7,0.6,0.9c0.3,0.2,0.7,0.3,1.2,0.3c0.5,0,0.9-0.2,1.2-0.5c0.3-0.3,0.4-0.8,0.4-1.4s-0.1-1-0.4-1.3
		s-0.7-0.5-1.1-0.5c-0.9,0-1.4,0.4-1.7,1.1h-1.9V171.9z"/>
	<path class="st3" d="M41.3,176.1c-0.4-0.4-0.6-1-0.6-1.7s0.2-1.2,0.6-1.6c0.4-0.4,0.9-0.6,1.6-0.6c0.6,0,1.2,0.2,1.6,0.6
		c0.4,0.4,0.6,0.9,0.6,1.6s-0.2,1.3-0.6,1.7c-0.4,0.4-0.9,0.6-1.6,0.6S41.7,176.5,41.3,176.1z M41.8,182.1l5.5-9.8h1.9l-5.5,9.8
		H41.8z M43.6,174.4c0-0.7-0.3-1.1-0.8-1.1c-0.5,0-0.8,0.4-0.8,1.1c0,0.7,0.3,1.1,0.8,1.1C43.4,175.5,43.6,175.1,43.6,174.4z
		 M48.1,182.3c-0.7,0-1.2-0.2-1.6-0.6c-0.4-0.4-0.6-0.9-0.6-1.7c0-0.7,0.2-1.3,0.6-1.7c0.4-0.4,0.9-0.6,1.6-0.6
		c0.6,0,1.2,0.2,1.6,0.6c0.4,0.4,0.6,0.9,0.6,1.7c0,0.7-0.2,1.3-0.6,1.7S48.8,182.3,48.1,182.3z M48.9,180c0-0.7-0.3-1.1-0.8-1.1
		c-0.5,0-0.8,0.4-0.8,1.1c0,0.7,0.3,1.1,0.8,1.1C48.6,181.1,48.9,180.7,48.9,180z"/>
</g>
<g class="st2">
	<path class="st3" d="M26.4,27.4V26c0.2-0.2,0.6-0.5,1.1-1c0.5-0.4,0.9-0.8,1.1-1s0.6-0.5,0.9-0.9c0.4-0.4,0.6-0.7,0.8-0.9
		c0.5-0.7,0.7-1.2,0.7-1.7c0-1-0.5-1.5-1.4-1.5c-0.4,0-0.8,0.1-1,0.4s-0.4,0.7-0.4,1.2h-1.9c0-1.1,0.3-1.9,1-2.5
		c0.6-0.6,1.5-0.9,2.5-0.9s1.8,0.3,2.4,0.9s0.9,1.3,0.9,2.2c0,0.7-0.2,1.3-0.5,1.8c-0.2,0.3-0.3,0.6-0.5,0.8s-0.4,0.5-0.7,0.8
		c-0.3,0.3-0.5,0.5-0.7,0.7s-0.4,0.4-0.8,0.7c-0.3,0.3-0.6,0.5-0.7,0.6h4.1v1.6H26.4z"/>
	<path class="st3" d="M34.5,22.5c0-3.4,1.3-5.1,3.8-5.1c2.5,0,3.8,1.7,3.8,5.1c0,3.4-1.3,5.1-3.8,5.1C35.8,27.6,34.5,25.9,34.5,22.5
		z M39.1,19.4c-0.2-0.1-0.5-0.2-0.8-0.2s-0.6,0.1-0.8,0.2s-0.4,0.3-0.5,0.5c-0.1,0.2-0.2,0.4-0.3,0.7c-0.1,0.3-0.1,0.6-0.1,0.9
		c0,0.3,0,0.6,0,1c0,0.4,0,0.7,0,1s0.1,0.6,0.1,0.9c0.1,0.3,0.2,0.6,0.3,0.7c0.1,0.2,0.3,0.3,0.5,0.5c0.2,0.1,0.5,0.2,0.8,0.2
		s0.6-0.1,0.8-0.2c0.2-0.1,0.4-0.3,0.5-0.5s0.2-0.4,0.3-0.7c0.1-0.3,0.1-0.6,0.1-0.9s0-0.6,0-1c0-0.4,0-0.7,0-1
		c0-0.3-0.1-0.6-0.1-0.9c-0.1-0.3-0.2-0.5-0.3-0.7S39.4,19.5,39.1,19.4z"/>
	<path class="st3" d="M44,21.5c-0.4-0.4-0.6-1-0.6-1.7s0.2-1.2,0.6-1.6c0.4-0.4,0.9-0.6,1.6-0.6c0.6,0,1.2,0.2,1.6,0.6
		c0.4,0.4,0.6,0.9,0.6,1.6s-0.2,1.3-0.6,1.7c-0.4,0.4-0.9,0.6-1.6,0.6S44.4,21.9,44,21.5z M44.5,27.6l5.5-9.8h1.9l-5.5,9.8H44.5z
		 M46.3,19.9c0-0.7-0.3-1.1-0.8-1.1c-0.5,0-0.8,0.4-0.8,1.1c0,0.7,0.3,1.1,0.8,1.1C46.1,21,46.3,20.6,46.3,19.9z M50.8,27.7
		c-0.7,0-1.2-0.2-1.6-0.6c-0.4-0.4-0.6-0.9-0.6-1.7c0-0.7,0.2-1.3,0.6-1.7c0.4-0.4,0.9-0.6,1.6-0.6c0.6,0,1.2,0.2,1.6,0.6
		c0.4,0.4,0.6,0.9,0.6,1.7c0,0.7-0.2,1.3-0.6,1.7S51.5,27.7,50.8,27.7z M51.6,25.5c0-0.7-0.3-1.1-0.8-1.1c-0.5,0-0.8,0.4-0.8,1.1
		c0,0.7,0.3,1.1,0.8,1.1C51.3,26.5,51.6,26.2,51.6,25.5z"/>
</g>
<line class="st7" x1="68.3" y1="491.6" x2="25.8" y2="491.6"/>
</svg>
