<?xml version="1.0" encoding="utf-8"?>
<!-- Generator: Adobe Illustrator 22.1.0, SVG Export Plug-In . SVG Version: 6.00 Build 0)  -->
<svg version="1.1" id="Livello_1" xmlns="http://www.w3.org/2000/svg" xmlns:xlink="http://www.w3.org/1999/xlink" x="0px" y="0px"
	 viewBox="0 0 833.5 576.8" style="enable-background:new 0 0 833.5 576.8;" xml:space="preserve">
<style type="text/css">
	.st0{fill:#111111;stroke:#111111;stroke-width:2;}
	.st1{opacity:0.4;fill:#9D77FC;enable-background:new    ;}
	.st2{enable-background:new    ;}
	.st3{fill:#FFFFFF;}
	.st4{fill:none;}
	.st5{fill:none;stroke:#FFFFFF;stroke-width:2;}
	.st6{fill:none;stroke:#FFFFFF;stroke-width:2;stroke-dasharray:9.9085,9.9085;}
</style>
<rect x="0.9" class="st0" width="832.6" height="576.8"/>
<rect x="326" y="165.2" class="st1" width="11.5" height="361.8"/>
<g class="st2">
	<path class="st3" d="M338.2,552.4h-9.8v-6h1.5v4.1h2.6v-3.1h1.5v3.1h4.2L338.2,552.4L338.2,552.4z"/>
	<path class="st3" d="M334.3,542.9h3.9v2h-9.8v-3.6c0-1.1,0.3-2,0.8-2.6s1.3-0.9,2.1-0.9c0.6,0,1.2,0.2,1.7,0.6
		c0.5,0.4,0.9,1,1.1,1.8l4-2.5v2.3l-3.9,2.3L334.3,542.9L334.3,542.9z M329.9,542.9h2.9v-1.6c0-0.5-0.1-0.9-0.4-1.1
		c-0.3-0.3-0.6-0.4-1-0.4s-0.8,0.1-1,0.4c-0.3,0.3-0.4,0.6-0.4,1.1v1.6H329.9z"/>
</g>
<rect x="768" y="92.8" class="st1" width="11.5" height="434.2"/>
<g class="st2">
	<path class="st3" d="M771.8,548.8c0,0.4,0.1,0.7,0.3,1c0.2,0.2,0.5,0.4,0.8,0.4c0.4,0,0.6-0.1,0.8-0.3s0.4-0.4,0.5-0.7
		s0.2-0.6,0.3-1s0.2-0.7,0.3-1.1s0.3-0.7,0.4-1c0.2-0.3,0.4-0.5,0.8-0.7s0.8-0.3,1.2-0.3c0.8,0,1.5,0.3,2.1,1
		c0.6,0.6,0.9,1.5,0.9,2.5c0,1.1-0.2,1.9-0.7,2.6c-0.5,0.7-1.2,1-2.1,1v-2.1c0.9-0.1,1.3-0.6,1.3-1.5c0-0.4-0.1-0.8-0.4-1.1
		c-0.2-0.3-0.5-0.4-0.9-0.4s-0.7,0.2-0.9,0.5s-0.4,0.8-0.5,1.3s-0.2,1-0.4,1.5s-0.4,0.9-0.8,1.3c-0.4,0.3-0.9,0.5-1.6,0.5
		c-0.9,0-1.6-0.3-2.1-1c-0.5-0.6-0.8-1.5-0.8-2.5s0.2-1.8,0.7-2.4c0.5-0.6,1.2-1,2.1-1v2.2c-0.4,0-0.7,0.2-0.9,0.4
		C772,548.1,771.8,548.4,771.8,548.8z"/>
	<path class="st3" d="M770.4,537.6h1.5v3.7h2.6v-3.2h1.5v3.2h2.7v-3.7h1.5v5.6h-9.8V537.6z"/>
</g>
<rect x="742" y="285.8" class="st1" width="11.5" height="241.2"/>
<g class="st2">
	<path class="st3" d="M744.4,546.3h1.5v3.7h2.6v-3.2h1.5v3.2h2.7v-3.7h1.5v5.6h-9.8V546.3z"/>
	<path class="st3" d="M745.8,541.1c0,0.4,0.1,0.7,0.3,1c0.2,0.2,0.5,0.4,0.8,0.4c0.4,0,0.6-0.1,0.8-0.3s0.4-0.4,0.5-0.7
		s0.2-0.6,0.3-1s0.2-0.7,0.3-1.1s0.3-0.7,0.4-1c0.2-0.3,0.4-0.5,0.8-0.7s0.8-0.3,1.2-0.3c0.8,0,1.5,0.3,2.1,1
		c0.6,0.6,0.9,1.5,0.9,2.5c0,1.1-0.2,1.9-0.7,2.6c-0.5,0.7-1.2,1-2.1,1v-2.1c0.9-0.1,1.3-0.6,1.3-1.5c0-0.4-0.1-0.8-0.4-1.1
		c-0.2-0.3-0.5-0.4-0.9-0.4s-0.7,0.2-0.9,0.5s-0.4,0.8-0.5,1.3s-0.2,1-0.4,1.5s-0.4,0.9-0.8,1.3c-0.4,0.3-0.9,0.5-1.6,0.5
		c-0.9,0-1.6-0.3-2.1-1c-0.5-0.6-0.8-1.5-0.8-2.5s0.2-1.8,0.7-2.4c0.5-0.6,1.2-1,2.1-1v2.2c-0.4,0-0.7,0.2-0.9,0.4
		C746,540.4,745.8,540.7,745.8,541.1z"/>
</g>
<rect x="716" y="358.1" class="st1" width="11.5" height="168.8"/>
<g class="st2">
	<path class="st3" d="M719.8,545.2c0,0.4,0.1,0.7,0.3,1c0.2,0.2,0.5,0.4,0.8,0.4c0.4,0,0.6-0.1,0.8-0.3s0.4-0.4,0.5-0.7
		s0.2-0.6,0.3-1s0.2-0.7,0.3-1.1s0.3-0.7,0.4-1c0.2-0.3,0.4-0.5,0.8-0.7s0.8-0.3,1.2-0.3c0.8,0,1.5,0.3,2.1,1
		c0.6,0.6,0.9,1.5,0.9,2.5c0,1.1-0.2,1.9-0.7,2.6c-0.5,0.7-1.2,1-2.1,1v-2.1c0.9-0.1,1.3-0.6,1.3-1.5c0-0.4-0.1-0.8-0.4-1.1
		c-0.2-0.3-0.5-0.4-0.9-0.4s-0.7,0.2-0.9,0.5s-0.4,0.8-0.5,1.3s-0.2,1-0.4,1.5s-0.4,0.9-0.8,1.3c-0.4,0.3-0.9,0.5-1.6,0.5
		c-0.9,0-1.6-0.3-2.1-1c-0.5-0.6-0.8-1.5-0.8-2.5s0.2-1.8,0.7-2.4c0.5-0.6,1.2-1,2.1-1v2.2c-0.4,0-0.7,0.2-0.9,0.4
		C720,544.5,719.8,544.8,719.8,545.2z"/>
	<path class="st3" d="M728.2,539.6h-9.8v-2h9.8V539.6z"/>
</g>
<rect x="690" y="117" class="st1" width="11.5" height="410"/>
<g class="st2">
	<path class="st3" d="M693.8,550.6c0,0.4,0.1,0.7,0.3,1c0.2,0.2,0.5,0.4,0.8,0.4c0.4,0,0.6-0.1,0.8-0.3s0.4-0.4,0.5-0.7
		s0.2-0.6,0.3-1s0.2-0.7,0.3-1.1s0.3-0.7,0.4-1c0.2-0.3,0.4-0.5,0.8-0.7s0.8-0.3,1.2-0.3c0.8,0,1.5,0.3,2.1,1
		c0.6,0.6,0.9,1.5,0.9,2.5c0,1.1-0.2,1.9-0.7,2.6c-0.5,0.7-1.2,1-2.1,1v-2.1c0.9-0.1,1.3-0.6,1.3-1.5c0-0.4-0.1-0.8-0.4-1.1
		c-0.2-0.3-0.5-0.4-0.9-0.4s-0.7,0.2-0.9,0.5s-0.4,0.8-0.5,1.3s-0.2,1-0.4,1.5s-0.4,0.9-0.8,1.3c-0.4,0.3-0.9,0.5-1.6,0.5
		c-0.9,0-1.6-0.3-2.1-1c-0.5-0.6-0.8-1.5-0.8-2.5s0.2-1.8,0.7-2.4c0.5-0.6,1.2-1,2.1-1v2.2c-0.4,0-0.7,0.2-0.9,0.4
		C694,549.8,693.8,550.2,693.8,550.6z"/>
	<path class="st3" d="M702.2,543v2h-9.8v-2h4.4l-4.4-3.5v-2.6l4.9,4.2l4.9-4.2v2.6l-4.3,3.5H702.2z"/>
</g>
<rect x="664" y="406.4" class="st1" width="11.5" height="120.6"/>
<g class="st2">
	<path class="st3" d="M672.3,554.1h3.9v2h-9.8v-3.6c0-1.1,0.3-2,0.8-2.6s1.3-0.9,2.1-0.9c0.6,0,1.2,0.2,1.7,0.6
		c0.5,0.4,0.9,1,1.1,1.8l4-2.5v2.3l-3.9,2.3v0.6H672.3z M667.9,554.1h2.9v-1.6c0-0.5-0.1-0.9-0.4-1.1c-0.3-0.3-0.6-0.4-1-0.4
		s-0.8,0.1-1,0.4c-0.3,0.3-0.4,0.6-0.4,1.1L667.9,554.1L667.9,554.1z"/>
	<path class="st3" d="M676.3,542.5c0,1.4-0.5,2.6-1.4,3.6s-2.1,1.4-3.6,1.4s-2.6-0.5-3.6-1.4s-1.4-2.2-1.4-3.6s0.5-2.6,1.4-3.5
		s2.1-1.4,3.6-1.4s2.6,0.5,3.6,1.4C675.8,539.9,676.3,541.1,676.3,542.5z M673.6,540.4c-0.6-0.5-1.4-0.8-2.3-0.8s-1.7,0.3-2.3,0.8
		c-0.6,0.6-0.9,1.3-0.9,2.2s0.3,1.6,0.9,2.2c0.6,0.6,1.4,0.8,2.3,0.8s1.7-0.3,2.3-0.8s0.9-1.3,0.9-2.2S674.2,540.9,673.6,540.4z"/>
</g>
<rect x="638" y="382.3" class="st1" width="11.5" height="144.7"/>
<g class="st2">
	<path class="st3" d="M645.3,546.2c0.3,0.3,0.6,0.6,0.7,1.1c0.2,0.5,0.3,1,0.3,1.7v1.6h3.9v2h-9.8V549c0-1.1,0.3-2,0.8-2.6
		s1.2-0.9,2-0.9C644,545.5,644.7,545.7,645.3,546.2z M644.8,550.6V549c0-0.5-0.1-0.9-0.4-1.1c-0.3-0.3-0.6-0.4-1-0.4s-0.8,0.1-1,0.4
		c-0.3,0.3-0.4,0.6-0.4,1.1v1.6H644.8z"/>
	<path class="st3" d="M641.9,544.6h-1.5v-7.2h1.5v2.6h8.3v2h-8.3V544.6z"/>
</g>
<rect x="612" y="358.1" class="st1" width="11.5" height="168.8"/>
<g class="st2">
	<path class="st3" d="M619.3,544.9c0.3,0.3,0.6,0.6,0.7,1.1s0.3,1,0.3,1.7v1.6h3.9v2h-9.8v-3.6c0-1.1,0.3-2,0.8-2.6s1.2-0.9,2-0.9
		C618,544.1,618.7,544.4,619.3,544.9z M618.8,549.3v-1.6c0-0.5-0.1-0.9-0.4-1.1c-0.3-0.3-0.6-0.4-1-0.4s-0.8,0.1-1,0.4
		c-0.3,0.3-0.4,0.6-0.4,1.1v1.6H618.8z"/>
	<path class="st3" d="M614.4,542.6v-2h8.3v-3.1h1.5v5.1H614.4z"/>
</g>
<rect x="586" y="117" class="st1" width="11.5" height="410"/>
<g class="st2">
	<path class="st3" d="M588.4,546.6v-2h9.8v2l-6.8,4.4h6.8v2h-9.8v-2l6.8-4.4H588.4z"/>
	<path class="st3" d="M588.4,542.5v-2h8.3v-3.1h1.5v5.1H588.4z"/>
</g>
<rect x="560" y="334.1" class="st1" width="11.5" height="192.9"/>
<g class="st2">
	<path class="st3" d="M562.4,546h9.8v2H566l6.2,2.7v1.4l-6.1,2.6h6.1v2h-9.8v-2.2l7.2-3.1l-7.2-3.1V546z"/>
	<path class="st3" d="M563.9,544.4h-1.5v-7.2h1.5v2.6h8.3v2h-8.3V544.4z"/>
</g>
<rect x="534" y="237.6" class="st1" width="11.5" height="289.5"/>
<g class="st2">
	<path class="st3" d="M536.4,552.4v-2h8.3v-3.1h1.5v5.1H536.4z"/>
	<path class="st3" d="M542.4,546h-6v-2h6c0.7,0,1.2-0.2,1.5-0.5s0.5-0.8,0.5-1.5c0-0.6-0.2-1.1-0.5-1.5c-0.3-0.3-0.9-0.5-1.5-0.5h-6
		v-2h6c1.2,0,2.2,0.4,2.8,1.2c0.7,0.8,1,1.7,1,2.8s-0.3,2-1,2.8C544.6,545.6,543.7,546,542.4,546z"/>
</g>
<rect x="508" y="382.3" class="st1" width="11.5" height="144.7"/>
<g class="st2">
	<path class="st3" d="M510.4,550.6v-2h8.3v-3.1h1.5v5.1H510.4z"/>
	<path class="st3" d="M511.9,544.8h-1.5v-7.2h1.5v2.6h8.3v2h-8.3L511.9,544.8L511.9,544.8z"/>
</g>
<rect x="482" y="261.7" class="st1" width="11.5" height="265.3"/>
<g class="st2">
	<path class="st3" d="M484.4,552.7v-2h8.3v-3.1h1.5v5.1H484.4z"/>
	<path class="st3" d="M494.2,543.5l-9.8,3.6V545l7.8-2.7l-7.8-2.7v-2.1l9.8,3.6V543.5z"/>
</g>
<rect x="456" y="285.8" class="st1" width="11.5" height="241.2"/>
<g class="st2">
	<path class="st3" d="M468.2,549.3h-9.8v-2h9.8V549.3z"/>
	<path class="st3" d="M459.9,545.8h-1.5v-7.2h1.5v2.6h8.3v2h-8.3V545.8z"/>
</g>
<rect x="430" y="285.8" class="st1" width="11.5" height="241.2"/>
<g class="st2">
	<path class="st3" d="M442.2,547.5h-9.8v-2h9.8V547.5z"/>
	<path class="st3" d="M432.4,537.8h1.5v3.7h2.6v-3.2h1.5v3.2h2.7v-3.7h1.5v5.6h-9.8L432.4,537.8L432.4,537.8z"/>
</g>
<rect x="404" y="358.1" class="st1" width="11.5" height="168.8"/>
<g class="st2">
	<path class="st3" d="M406.4,549.7v-2h9.8v2H412v4.2h4.2v2h-9.8v-2h4.1v-4.2H406.4z"/>
	<path class="st3" d="M412.4,545.7h-6v-2h6c0.7,0,1.2-0.2,1.5-0.5s0.5-0.8,0.5-1.5s-0.2-1.1-0.5-1.5c-0.3-0.3-0.9-0.5-1.5-0.5h-6v-2
		h6c1.2,0,2.2,0.4,2.8,1.2c0.7,0.8,1,1.7,1,2.8s-0.3,2-1,2.8C414.6,545.3,413.7,545.7,412.4,545.7z"/>
</g>
<rect x="378" y="334.1" class="st1" width="11.5" height="192.9"/>
<g class="st2">
	<path class="st3" d="M380.4,544.5h1.5v3.7h2.6V545h1.5v3.2h2.7v-3.7h1.5v5.6h-9.8L380.4,544.5L380.4,544.5z"/>
	<path class="st3" d="M380.4,542.5v-2h8.3v-3.1h1.5v5.1H380.4z"/>
</g>
<rect x="352" y="213.4" class="st1" width="11.5" height="313.5"/>
<g class="st2">
	<path class="st3" d="M354.4,550.6c0-1.6,0.4-2.8,1.3-3.8s2.1-1.4,3.6-1.4s2.7,0.5,3.5,1.4s1.3,2.2,1.3,3.8v3.3h-9.8v-3.3H354.4z
		 M362.7,551.9v-1.3c0-1-0.3-1.8-0.9-2.4c-0.6-0.6-1.4-0.9-2.5-0.9s-1.9,0.3-2.5,0.9c-0.6,0.6-0.9,1.4-0.9,2.4v1.3H362.7z"/>
	<path class="st3" d="M354.4,538.1h1.5v3.7h2.6v-3.2h1.5v3.2h2.7v-3.7h1.5v5.6h-9.8L354.4,538.1L354.4,538.1z"/>
</g>
<g id="FR">
</g>
<rect x="300" y="189.4" class="st1" width="11.5" height="337.7"/>
<g class="st2">
	<path class="st3" d="M312.2,547.6h-9.8v-6h1.5v4.1h2.6v-3.1h1.5v3.1h4.2L312.2,547.6L312.2,547.6z"/>
	<path class="st3" d="M312.2,540h-9.8v-2h9.8V540z"/>
</g>
<rect x="274" y="261.7" class="st1" width="11.5" height="265.3"/>
<g class="st2">
	<path class="st3" d="M276.4,545.4h1.5v3.7h2.6v-3.2h1.5v3.2h2.7v-3.7h1.5v5.6h-9.8L276.4,545.4L276.4,545.4z"/>
	<path class="st3" d="M276.4,537.8h1.5v3.7h2.6v-3.2h1.5v3.2h2.7v-3.7h1.5v5.6h-9.8L276.4,537.8L276.4,537.8z"/>
</g>
<rect x="248" y="92.8" class="st1" width="11.5" height="434.2"/>
<g class="st2">
	<path class="st3" d="M250.4,552.3c0-1.6,0.4-2.8,1.3-3.8c0.9-1,2.1-1.4,3.6-1.4c1.5,0,2.7,0.5,3.5,1.4s1.3,2.2,1.3,3.8v3.3h-9.8
		v-3.3H250.4z M258.7,553.7v-1.3c0-1-0.3-1.8-0.9-2.4c-0.6-0.6-1.4-0.9-2.5-0.9s-1.9,0.3-2.5,0.9c-0.6,0.6-0.9,1.4-0.9,2.4v1.3
		H258.7z"/>
	<path class="st3" d="M260.2,543.6v2h-9.8v-2h4.4l-4.4-3.5v-2.6l4.9,4.2l4.9-4.2v2.6l-4.3,3.5H260.2z"/>
</g>
<rect x="222" y="358.1" class="st1" width="11.5" height="168.8"/>
<g class="st2">
	<path class="st3" d="M232.8,554.1c-0.9,1-2.1,1.4-3.6,1.4c-1.4,0-2.6-0.5-3.6-1.4c-0.9-1-1.4-2.1-1.4-3.5c0-1.1,0.3-2,0.8-2.8
		s1.3-1.4,2.3-1.8v2.4c-0.9,0.4-1.3,1.2-1.3,2.2c0,0.9,0.3,1.6,0.9,2.2c0.6,0.6,1.4,0.8,2.3,0.8s1.7-0.3,2.3-0.8s0.9-1.3,0.9-2.2
		c0-1-0.4-1.8-1.3-2.2V546c1,0.4,1.7,0.9,2.3,1.8c0.5,0.8,0.8,1.8,0.8,2.8C234.3,552,233.8,553.2,232.8,554.1z"/>
	<path class="st3" d="M224.4,537.9h1.5l6.7,4.4v-4.4h1.5v6.7h-1.5l-6.7-4.4v4.4h-1.5V537.9z"/>
</g>
<rect x="196" y="358.1" class="st1" width="11.5" height="168.8"/>
<g class="st2">
	<path class="st3" d="M206.8,555.1c-0.9,1-2.1,1.4-3.6,1.4c-1.4,0-2.6-0.5-3.6-1.4c-0.9-1-1.4-2.1-1.4-3.5c0-1.1,0.3-2,0.8-2.8
		s1.3-1.4,2.3-1.8v2.4c-0.9,0.4-1.3,1.2-1.3,2.2c0,0.9,0.3,1.6,0.9,2.2c0.6,0.6,1.4,0.8,2.3,0.8s1.7-0.3,2.3-0.8s0.9-1.3,0.9-2.2
		c0-1-0.4-1.8-1.3-2.2V547c1,0.4,1.7,0.9,2.3,1.8c0.5,0.8,0.8,1.8,0.8,2.8C208.3,553,207.8,554.2,206.8,555.1z"/>
	<path class="st3" d="M208.2,540.8v2h-3.4l-6.4,3.3v-2.2l4.6-2.1l-4.6-2.1v-2.2l6.4,3.3H208.2z"/>
</g>
<rect x="170" y="237.6" class="st1" width="11.5" height="289.5"/>
<g class="st2">
	<path class="st3" d="M172.4,548.8v-2h9.8v2H178v4.2h4.2v2h-9.8v-2h4.1v-4.2H172.4z"/>
	<path class="st3" d="M178.3,542.7h3.9v2h-9.8v-3.6c0-1.1,0.3-2,0.8-2.6s1.3-0.9,2.1-0.9c0.6,0,1.2,0.2,1.7,0.6
		c0.5,0.4,0.9,1,1.1,1.8l4-2.5v2.3l-3.9,2.3L178.3,542.7L178.3,542.7z M173.9,542.7h2.9v-1.6c0-0.5-0.1-0.9-0.4-1.1
		c-0.3-0.3-0.6-0.4-1-0.4s-0.8,0.1-1,0.4c-0.3,0.3-0.4,0.6-0.4,1.1v1.6H173.9z"/>
</g>
<rect x="144" y="334.1" class="st1" width="11.5" height="192.9"/>
<g class="st2">
	<path class="st3" d="M146.4,556v-4c0-1,0.2-1.8,0.7-2.4c0.5-0.6,1.1-0.9,1.8-0.9c1.1,0,1.8,0.6,2.2,1.9c0.1-0.6,0.4-1.2,0.8-1.5
		s1-0.6,1.6-0.6c0.8,0,1.4,0.3,1.9,0.9c0.5,0.6,0.7,1.4,0.7,2.4v4.2L146.4,556L146.4,556z M147.9,554h2.5v-1.8c0-0.4-0.1-0.8-0.3-1
		c-0.2-0.3-0.5-0.4-0.9-0.4s-0.7,0.1-0.9,0.4c-0.2,0.3-0.3,0.6-0.3,1v1.8H147.9z M154.7,554v-2c0-0.4-0.1-0.8-0.4-1.1
		s-0.6-0.4-1-0.4s-0.8,0.1-1,0.4c-0.2,0.3-0.4,0.6-0.4,1.1v2H154.7z"/>
	<path class="st3" d="M154.8,546c-0.9,1-2.1,1.4-3.6,1.4c-1.4,0-2.6-0.5-3.6-1.4c-0.9-1-1.4-2.1-1.4-3.5c0-1.1,0.3-2,0.8-2.8
		s1.3-1.4,2.3-1.8v2.4c-0.9,0.4-1.3,1.2-1.3,2.2c0,0.9,0.3,1.6,0.9,2.2c0.6,0.6,1.4,0.8,2.3,0.8s1.7-0.3,2.3-0.8
		c0.6-0.6,0.9-1.2,0.9-2s-0.2-1.4-0.6-1.9c-0.4-0.5-0.9-0.7-1.6-0.9v3.2h-1.5v-5.4h1.5c1.1,0.2,2,0.7,2.8,1.6s1.2,2,1.2,3.3
		S155.8,545,154.8,546z"/>
</g>
<rect x="794" y="213.4" class="st1" width="11.5" height="313.5"/>
<g class="st2">
	<path class="st3" d="M802.4,555.1h-6v-2h6c0.7,0,1.2-0.2,1.5-0.5s0.5-0.8,0.5-1.5c0-0.6-0.2-1.1-0.5-1.5c-0.3-0.3-0.9-0.5-1.5-0.5
		h-6v-2h6c1.2,0,2.2,0.4,2.8,1.2c0.7,0.8,1,1.7,1,2.8s-0.3,2-1,2.8C804.6,554.7,803.7,555.1,802.4,555.1z"/>
	<path class="st3" d="M806.2,543.1v2h-9.8v-2h4.4l-4.4-3.5V537l4.9,4.2l4.9-4.2v2.6l-4.3,3.5H806.2z"/>
</g>
<rect x="118" y="129.8" class="st1" width="11.5" height="397.2"/>
<g class="st2">
	<path class="st3" d="M125.9,545.8c0.4-0.4,1-0.5,1.6-0.5c0.8,0,1.5,0.3,2,0.8c0.5,0.6,0.7,1.4,0.7,2.4v4.2h-9.9v-4.2
		c0-1,0.2-1.8,0.7-2.3c0.4-0.5,1.1-0.8,1.8-0.8c0.6,0,1.1,0.2,1.5,0.5s0.6,0.7,0.8,1.3C125.2,546.6,125.5,546.1,125.9,545.8z
		 M124.4,550.8V549c0-0.5-0.1-0.9-0.3-1.1c-0.2-0.3-0.5-0.4-0.9-0.4s-0.7,0.1-1,0.4c-0.2,0.3-0.3,0.6-0.3,1.2v1.8h2.5
		C124.4,550.9,124.4,550.8,124.4,550.8z M128.2,547.7c-0.2-0.3-0.6-0.4-1-0.4s-0.8,0.1-1,0.4c-0.2,0.3-0.4,0.7-0.4,1.2v1.9h2.7v-1.9
		C128.6,548.4,128.4,548,128.2,547.7z"/>
	<path class="st3" d="M121.9,541.9h2.6v-3.5h1.5v3.5h2.7V538h1.6v5.9h-9.9V538h1.6L121.9,541.9L121.9,541.9z"/>
</g>
<rect x="92" y="334.1" class="st1" width="11.5" height="192.9"/>
<g class="st2">
	<path class="st3" d="M104.2,549.4l-1.8,0.6v3.8l1.8,0.6v2.1l-9.8-3.5v-2.3l9.8-3.4V549.4z M100.8,553.3v-2.8l-4.1,1.4L100.8,553.3z
		"/>
	<path class="st3" d="M100.4,545.9h-6v-2h6c0.7,0,1.2-0.2,1.5-0.5s0.5-0.8,0.5-1.5s-0.2-1.1-0.5-1.5c-0.3-0.3-0.9-0.5-1.5-0.5h-6v-2
		h6c1.2,0,2.2,0.4,2.8,1.2c0.7,0.8,1,1.7,1,2.8s-0.3,2-1,2.8C102.6,545.5,101.7,545.9,100.4,545.9z"/>
</g>
<path id="SVGID_x5F_1_x5F_" class="st4" d="M-33.1,175.2h742.2"/>
<line class="st5" x1="68.3" y1="526.8" x2="25.8" y2="526.8"/>
<g class="st2">
	<path class="st3" d="M25.9,517.8c0-3.4,1.3-5.1,3.8-5.1s3.8,1.7,3.8,5.1c0,3.4-1.3,5.1-3.8,5.1C27.1,522.9,25.9,521.2,25.9,517.8z
		 M30.5,514.7c-0.2-0.1-0.5-0.2-0.8-0.2s-0.6,0.1-0.8,0.2s-0.4,0.3-0.5,0.5s-0.2,0.4-0.3,0.7c-0.1,0.3-0.1,0.6-0.1,0.9
		c0,0.3,0,0.6,0,1s0,0.7,0,1s0.1,0.6,0.1,0.9c0.1,0.3,0.2,0.6,0.3,0.7c0.1,0.2,0.3,0.3,0.5,0.5c0.2,0.1,0.5,0.2,0.8,0.2
		s0.6-0.1,0.8-0.2c0.2-0.1,0.4-0.3,0.5-0.5s0.2-0.4,0.3-0.7c0.1-0.3,0.1-0.6,0.1-0.9s0-0.6,0-1s0-0.7,0-1s-0.1-0.6-0.1-0.9
		c-0.1-0.3-0.2-0.5-0.3-0.7S30.7,514.8,30.5,514.7z"/>
	<path class="st3" d="M35.3,516.8c-0.4-0.4-0.6-1-0.6-1.7s0.2-1.2,0.6-1.6c0.4-0.4,0.9-0.6,1.6-0.6c0.6,0,1.2,0.2,1.6,0.6
		c0.4,0.4,0.6,0.9,0.6,1.6s-0.2,1.3-0.6,1.7c-0.4,0.4-0.9,0.6-1.6,0.6S35.7,517.2,35.3,516.8z M35.8,522.9l5.5-9.8h1.9l-5.5,9.8
		H35.8z M37.7,515.2c0-0.7-0.3-1.1-0.8-1.1s-0.8,0.4-0.8,1.1c0,0.7,0.3,1.1,0.8,1.1C37.4,516.3,37.7,515.9,37.7,515.2z M42.2,523
		c-0.7,0-1.2-0.2-1.6-0.6c-0.4-0.4-0.6-0.9-0.6-1.7c0-0.7,0.2-1.3,0.6-1.7c0.4-0.4,0.9-0.6,1.6-0.6c0.6,0,1.2,0.2,1.6,0.6
		c0.4,0.4,0.6,0.9,0.6,1.7c0,0.7-0.2,1.3-0.6,1.7S42.8,523,42.2,523z M42.9,520.8c0-0.7-0.3-1.1-0.8-1.1s-0.8,0.4-0.8,1.1
		c0,0.7,0.3,1.1,0.8,1.1C42.7,521.9,42.9,521.5,42.9,520.8z"/>
</g>
<line class="st5" x1="68.3" y1="42" x2="25.7" y2="42"/>
<line class="st5" x1="68.3" y1="163.9" x2="25.7" y2="163.9"/>
<line class="st5" x1="68.3" y1="284.6" x2="25.8" y2="284.6"/>
<g class="st2">
	<path class="st3" d="M25.8,389.1h6.3v1.7h-4.5v2.3c0.2-0.2,0.5-0.4,0.8-0.5s0.8-0.2,1.3-0.2s1,0.1,1.4,0.3s0.8,0.5,1,0.8
		c0.5,0.7,0.7,1.4,0.7,2.2c0,1.1-0.3,1.9-0.9,2.6c-0.6,0.6-1.5,1-2.6,1s-2-0.3-2.6-0.8s-1-1.2-1.1-2h1.9c0.1,0.4,0.3,0.7,0.6,0.9
		c0.3,0.2,0.7,0.3,1.2,0.3s0.9-0.2,1.2-0.5c0.3-0.3,0.4-0.8,0.4-1.4s-0.1-1-0.4-1.3s-0.7-0.5-1.1-0.5c-0.9,0-1.4,0.4-1.7,1.1h-1.9
		V389.1z"/>
	<path class="st3" d="M34.7,393.3c-0.4-0.4-0.6-1-0.6-1.7s0.2-1.2,0.6-1.6c0.4-0.4,0.9-0.6,1.6-0.6c0.6,0,1.2,0.2,1.6,0.6
		c0.4,0.4,0.6,0.9,0.6,1.6s-0.2,1.3-0.6,1.7c-0.4,0.4-0.9,0.6-1.6,0.6S35.1,393.7,34.7,393.3z M35.2,399.4l5.5-9.8h1.9l-5.5,9.8
		H35.2z M37.1,391.7c0-0.7-0.3-1.1-0.8-1.1s-0.8,0.4-0.8,1.1s0.3,1.1,0.8,1.1C36.8,392.7,37.1,392.4,37.1,391.7z M41.6,399.5
		c-0.7,0-1.2-0.2-1.6-0.6c-0.4-0.4-0.6-0.9-0.6-1.7c0-0.7,0.2-1.3,0.6-1.7c0.4-0.4,0.9-0.6,1.6-0.6c0.6,0,1.2,0.2,1.6,0.6
		c0.4,0.4,0.6,0.9,0.6,1.7c0,0.7-0.2,1.3-0.6,1.7S42.2,399.5,41.6,399.5z M42.3,397.3c0-0.7-0.3-1.1-0.8-1.1s-0.8,0.4-0.8,1.1
		s0.3,1.1,0.8,1.1C42.1,398.3,42.3,398,42.3,397.3z"/>
</g>
<g class="st2">
	<path class="st3" d="M27.7,279v-8.1h-1.5v-1.8h3.5v9.9H27.7z"/>
	<path class="st3" d="M31.9,273.9c0-3.4,1.3-5.1,3.8-5.1s3.8,1.7,3.8,5.1s-1.3,5.1-3.8,5.1C33.1,279,31.9,277.3,31.9,273.9z
		 M36.5,270.8c-0.2-0.1-0.5-0.2-0.8-0.2s-0.6,0.1-0.8,0.2s-0.4,0.3-0.5,0.5s-0.2,0.4-0.3,0.7c-0.1,0.3-0.1,0.6-0.1,0.9s0,0.6,0,1
		s0,0.7,0,1s0.1,0.6,0.1,0.9c0.1,0.3,0.2,0.6,0.3,0.7c0.1,0.2,0.3,0.3,0.5,0.5c0.2,0.1,0.5,0.2,0.8,0.2s0.6-0.1,0.8-0.2
		s0.4-0.3,0.5-0.5s0.2-0.4,0.3-0.7c0.1-0.3,0.1-0.6,0.1-0.9s0-0.6,0-1s0-0.7,0-1s-0.1-0.6-0.1-0.9c-0.1-0.3-0.2-0.5-0.3-0.7
		S36.7,270.9,36.5,270.8z"/>
	<path class="st3" d="M41.3,272.9c-0.4-0.4-0.6-1-0.6-1.7s0.2-1.2,0.6-1.6c0.4-0.4,0.9-0.6,1.6-0.6c0.6,0,1.2,0.2,1.6,0.6
		c0.4,0.4,0.6,0.9,0.6,1.6s-0.2,1.3-0.6,1.7c-0.4,0.4-0.9,0.6-1.6,0.6S41.7,273.3,41.3,272.9z M41.8,279l5.5-9.8h1.9l-5.5,9.8H41.8z
		 M43.7,271.3c0-0.7-0.3-1.1-0.8-1.1s-0.8,0.4-0.8,1.1s0.3,1.1,0.8,1.1C43.4,272.4,43.7,272,43.7,271.3z M48.1,279.1
		c-0.7,0-1.2-0.2-1.6-0.6c-0.4-0.4-0.6-0.9-0.6-1.7c0-0.7,0.2-1.3,0.6-1.7c0.4-0.4,0.9-0.6,1.6-0.6c0.6,0,1.2,0.2,1.6,0.6
		c0.4,0.4,0.6,0.9,0.6,1.7c0,0.7-0.2,1.3-0.6,1.7S48.8,279.1,48.1,279.1z M48.9,276.9c0-0.7-0.3-1.1-0.8-1.1s-0.8,0.4-0.8,1.1
		s0.3,1.1,0.8,1.1C48.7,278,48.9,277.6,48.9,276.9z"/>
</g>
<g class="st2">
	<path class="st3" d="M27.7,156.8v-8.1h-1.5v-1.8h3.5v9.9L27.7,156.8L27.7,156.8z"/>
	<path class="st3" d="M32.4,146.6h6.3v1.7h-4.5v2.3c0.2-0.2,0.5-0.4,0.8-0.5s0.8-0.2,1.3-0.2s1,0.1,1.4,0.3s0.8,0.5,1,0.8
		c0.5,0.7,0.7,1.4,0.7,2.2c0,1.1-0.3,1.9-0.9,2.6c-0.6,0.6-1.5,1-2.6,1s-2-0.3-2.6-0.8s-1-1.2-1.1-2h1.9c0.1,0.4,0.3,0.7,0.6,0.9
		s0.7,0.3,1.2,0.3s0.9-0.2,1.2-0.5s0.4-0.8,0.4-1.4s-0.1-1-0.4-1.3s-0.7-0.5-1.1-0.5c-0.9,0-1.4,0.4-1.7,1.1h-1.9
		C32.4,152.6,32.4,146.6,32.4,146.6z"/>
	<path class="st3" d="M41.3,150.8c-0.4-0.4-0.6-1-0.6-1.7s0.2-1.2,0.6-1.6c0.4-0.4,0.9-0.6,1.6-0.6c0.6,0,1.2,0.2,1.6,0.6
		c0.4,0.4,0.6,0.9,0.6,1.6s-0.2,1.3-0.6,1.7c-0.4,0.4-0.9,0.6-1.6,0.6S41.7,151.2,41.3,150.8z M41.8,156.8l5.5-9.8h1.9l-5.5,9.8
		H41.8z M43.6,149.1c0-0.7-0.3-1.1-0.8-1.1s-0.8,0.4-0.8,1.1c0,0.7,0.3,1.1,0.8,1.1C43.4,150.2,43.6,149.8,43.6,149.1z M48.1,157
		c-0.7,0-1.2-0.2-1.6-0.6c-0.4-0.4-0.6-0.9-0.6-1.7c0-0.7,0.2-1.3,0.6-1.7c0.4-0.4,0.9-0.6,1.6-0.6c0.6,0,1.2,0.2,1.6,0.6
		c0.4,0.4,0.6,0.9,0.6,1.7c0,0.7-0.2,1.3-0.6,1.7S48.8,157,48.1,157z M48.9,154.7c0-0.7-0.3-1.1-0.8-1.1s-0.8,0.4-0.8,1.1
		c0,0.7,0.3,1.1,0.8,1.1C48.6,155.8,48.9,155.4,48.9,154.7z"/>
</g>
<g class="st2">
	<path class="st3" d="M26.4,32.6v-1.4c0.2-0.2,0.6-0.5,1.1-1c0.5-0.4,0.9-0.8,1.1-1s0.6-0.5,0.9-0.9c0.4-0.4,0.6-0.7,0.8-0.9
		c0.5-0.7,0.7-1.2,0.7-1.7c0-1-0.5-1.5-1.4-1.5c-0.4,0-0.8,0.1-1,0.4s-0.4,0.7-0.4,1.2h-1.9c0-1.1,0.3-1.9,1-2.5
		c0.6-0.6,1.5-0.9,2.5-0.9s1.8,0.3,2.4,0.9c0.6,0.6,0.9,1.3,0.9,2.2c0,0.7-0.2,1.3-0.5,1.8c-0.2,0.3-0.3,0.6-0.5,0.8
		s-0.4,0.5-0.7,0.8c-0.3,0.3-0.5,0.5-0.7,0.7s-0.4,0.4-0.8,0.7c-0.3,0.3-0.6,0.5-0.7,0.6h4.1v1.6L26.4,32.6L26.4,32.6z"/>
	<path class="st3" d="M34.5,27.7c0-3.4,1.3-5.1,3.8-5.1s3.8,1.7,3.8,5.1s-1.3,5.1-3.8,5.1S34.5,31.1,34.5,27.7z M39.1,24.6
		c-0.2-0.1-0.5-0.2-0.8-0.2s-0.6,0.1-0.8,0.2s-0.4,0.3-0.5,0.5s-0.2,0.4-0.3,0.7c-0.1,0.3-0.1,0.6-0.1,0.9s0,0.6,0,1s0,0.7,0,1
		s0.1,0.6,0.1,0.9c0.1,0.3,0.2,0.6,0.3,0.7c0.1,0.2,0.3,0.3,0.5,0.5c0.2,0.1,0.5,0.2,0.8,0.2s0.6-0.1,0.8-0.2s0.4-0.3,0.5-0.5
		s0.2-0.4,0.3-0.7C40,29.3,40,29,40,28.7s0-0.6,0-1s0-0.7,0-1s-0.1-0.6-0.1-0.9c-0.1-0.3-0.2-0.5-0.3-0.7S39.4,24.7,39.1,24.6z"/>
	<path class="st3" d="M44,26.7c-0.4-0.4-0.6-1-0.6-1.7s0.2-1.2,0.6-1.6c0.4-0.4,0.9-0.6,1.6-0.6c0.6,0,1.2,0.2,1.6,0.6
		c0.4,0.4,0.6,0.9,0.6,1.6s-0.2,1.3-0.6,1.7c-0.4,0.4-0.9,0.6-1.6,0.6S44.4,27.1,44,26.7z M44.5,32.8L50,23h1.9l-5.5,9.8
		C46.4,32.8,44.5,32.8,44.5,32.8z M46.3,25.1c0-0.7-0.3-1.1-0.8-1.1s-0.8,0.4-0.8,1.1s0.3,1.1,0.8,1.1
		C46.1,26.2,46.3,25.8,46.3,25.1z M50.8,32.9c-0.7,0-1.2-0.2-1.6-0.6c-0.4-0.4-0.6-0.9-0.6-1.7c0-0.7,0.2-1.3,0.6-1.7
		c0.4-0.4,0.9-0.6,1.6-0.6c0.6,0,1.2,0.2,1.6,0.6c0.4,0.4,0.6,0.9,0.6,1.7c0,0.7-0.2,1.3-0.6,1.7S51.5,32.9,50.8,32.9z M51.6,30.7
		c0-0.7-0.3-1.1-0.8-1.1S50,30,50,30.7s0.3,1.1,0.8,1.1C51.3,31.7,51.6,31.4,51.6,30.7z"/>
</g>
<line class="st5" x1="68.3" y1="405.2" x2="25.8" y2="405.2"/>
<g>
	<g>
		<line class="st5" x1="805.5" y1="261.7" x2="800.5" y2="261.7"/>
		<line class="st6" x1="790.6" y1="261.7" x2="102" y2="261.7"/>
		<line class="st5" x1="97" y1="261.7" x2="92" y2="261.7"/>
	</g>
</g>
<g>
	<path class="st3" d="M391,242.7v1.3h-3.1v2.2h2.8v1.3h-2.8v2.3h3.1v1.3h-4.8v-8.4H391z"/>
	<path class="st3" d="M393.2,247.8v-5.2h1.7v5.2c0,0.6,0.1,1,0.4,1.3c0.3,0.3,0.7,0.4,1.3,0.4s1-0.1,1.3-0.4
		c0.3-0.3,0.4-0.7,0.4-1.3v-5.2h1.7v5.2c0,1.1-0.3,1.9-1,2.4s-1.5,0.9-2.4,0.9c-1,0-1.7-0.3-2.4-0.9
		C393.5,249.7,393.2,248.9,393.2,247.8z"/>
	<path class="st3" d="M411.8,251.1l-0.5-1.6H408l-0.5,1.6h-1.8l3-8.4h2l3,8.4H411.8z M408.4,248.2h2.4l-1.2-3.5L408.4,248.2z"/>
	<path class="st3" d="M417.6,251.1l-3.1-8.4h1.8l2.3,6.7l2.3-6.7h1.8l-3.1,8.4H417.6z"/>
	<path class="st3" d="M429.1,242.7v1.3h-3.1v2.2h2.8v1.3h-2.8v2.3h3.1v1.3h-4.8v-8.4H429.1z"/>
	<path class="st3" d="M433,247.7v3.3h-1.7v-8.4h3.1c1,0,1.7,0.2,2.2,0.7s0.8,1.1,0.8,1.8c0,0.5-0.2,1-0.5,1.5
		c-0.3,0.5-0.8,0.8-1.5,0.9l2.1,3.4h-2l-2-3.3H433z M433,244v2.4h1.4c0.4,0,0.7-0.1,1-0.3c0.2-0.2,0.3-0.5,0.3-0.9s-0.1-0.7-0.3-0.9
		c-0.2-0.2-0.5-0.3-1-0.3H433z"/>
	<path class="st3" d="M445,251.1l-0.5-1.6h-3.3l-0.5,1.6h-1.8l3-8.4h2l3,8.4H445z M441.7,248.2h2.4l-1.2-3.5L441.7,248.2z"/>
	<path class="st3" d="M449.3,249.9c-0.8-0.8-1.2-1.8-1.2-3.1s0.4-2.3,1.2-3.1c0.8-0.8,1.8-1.2,3-1.2c0.9,0,1.7,0.2,2.4,0.7
		s1.2,1.1,1.5,2h-2c-0.4-0.7-1-1.1-1.9-1.1c-0.8,0-1.4,0.3-1.9,0.8c-0.5,0.5-0.7,1.2-0.7,2s0.2,1.5,0.7,2c0.5,0.5,1.1,0.8,1.8,0.8
		c0.7,0,1.2-0.2,1.6-0.5c0.4-0.3,0.6-0.8,0.7-1.4h-2.8v-1.3h4.6v1.3c-0.1,0.9-0.6,1.7-1.3,2.4c-0.8,0.7-1.7,1-2.8,1
		C451.1,251.1,450.1,250.7,449.3,249.9z"/>
	<path class="st3" d="M463,242.7v1.3h-3.1v2.2h2.8v1.3h-2.8v2.3h3.1v1.3h-4.8v-8.4H463z"/>
</g>
</svg>
