<svg xmlns="http://www.w3.org/2000/svg" viewBox="0 0 278.41 112.62"><defs><style>.cls-1{fill:#111;}.cls-2{fill:#f5f5f5;}.cls-3,.cls-5{fill:none;stroke-miterlimit:10;}.cls-3{stroke:#f5f5f5;}.cls-4{fill:#393939;}.cls-5{stroke:#393939;stroke-width:2px;}.cls-6{fill:#9d77fc;}</style></defs><title>legenda-perpetrator</title><g id="Livello_1" data-name="Livello 1"><rect class="cls-1" x="-843.87" y="-483.19" width="1920" height="1080"/><path class="cls-2" d="M30.57,50.28l2.71,9.8h-1.9l-.58-2.15H27.36l-.58,2.15h-1.9l2.72-9.8Zm-.21,5.94-1.19-4.4H29l-1.19,4.4Z"/><path class="cls-2" d="M38,50.28,40,58.15h.17l2-7.87h3.22v9.8H43.67V52.24H43.5l-2,7.84H38.75l-2-7.84h-.17v7.84H34.76v-9.8Z"/><path class="cls-2" d="M51.4,50.08a3.75,3.75,0,0,1,4,4.06v2.08a3.71,3.71,0,0,1-4,4.06,3.71,3.71,0,0,1-4-4.06V54.14A3.75,3.75,0,0,1,51.4,50.08Zm-2.19,6.19a2.19,2.19,0,1,0,4.37,0V54.09a2.19,2.19,0,1,0-4.37,0Z"/><path class="cls-2" d="M59.12,50.28v6.36a2,2,0,0,0,4,0V50.28H65v6.33c0,2.24-1.39,3.67-3.84,3.67s-3.84-1.43-3.84-3.67V50.28Z"/><path class="cls-2" d="M70.46,50.28l2.25,8.07h.16V50.28h1.85v9.8H71.44L69.2,52H69v8.06H67.19v-9.8Z"/><path class="cls-2" d="M84.13,50.28V52h-3v8.09H79.31V52h-3V50.28Z"/><path class="cls-2" d="M93.73,50.08a3.75,3.75,0,0,1,4,4.06v2.08a4,4,0,1,1-8.07,0V54.14A3.74,3.74,0,0,1,93.73,50.08Zm-2.18,6.19a2.19,2.19,0,1,0,4.37,0V54.09a2.19,2.19,0,1,0-4.37,0Z"/><path class="cls-2" d="M105.91,50.28V52h-4.4V54.3h4.12V56h-4.12v4H99.67v-9.8Z"/><path class="cls-2" d="M5.11,67.08a3.11,3.11,0,1,1,0,6.22H2.93v3.58H1.08v-9.8ZM2.93,71.56h2a1.37,1.37,0,1,0,0-2.74h-2Z"/><path class="cls-2" d="M16.34,67.08v1.71H11.75V71.1H16v1.68h-4.2v2.4h4.68v1.7H9.9v-9.8Z"/><path class="cls-2" d="M23.65,73.1l2,3.78H23.59l-1.8-3.62H20.15v3.62H18.3V67.09h4.31a3,3,0,0,1,3.14,3.08A2.9,2.9,0,0,1,23.65,73.1Zm-3.5-1.58h2.28a1.35,1.35,0,1,0,0-2.69H20.15Z"/><path class="cls-2" d="M31.66,67.08a3.11,3.11,0,1,1,0,6.22H29.47v3.58H27.62v-9.8Zm-2.19,4.48h2a1.37,1.37,0,1,0,0-2.74h-2Z"/><path class="cls-2" d="M42.89,67.08v1.71h-4.6V71.1h4.2v1.68h-4.2v2.4H43v1.7H36.44v-9.8Z"/><path class="cls-2" d="M52,67.08v1.71H49v8.09H47.14V68.79h-3V67.08Z"/><path class="cls-2" d="M58.93,73.1l2,3.78H58.87l-1.8-3.62H55.43v3.62H53.58V67.09h4.31A3,3,0,0,1,61,70.17,2.9,2.9,0,0,1,58.93,73.1Zm-3.5-1.58h2.28a1.35,1.35,0,1,0,0-2.69H55.43Z"/><path class="cls-2" d="M67.71,67.08l2.71,9.8h-1.9l-.58-2.15H64.5l-.58,2.15H62l2.72-9.8ZM67.5,73l-1.2-4.4h-.16L65,73Z"/><path class="cls-2" d="M78.18,67.08v1.71h-3v8.09H73.36V68.79h-3V67.08Z"/><path class="cls-2" d="M83.23,66.88a3.75,3.75,0,0,1,4,4.07V73a4,4,0,1,1-8.06,0V71A3.75,3.75,0,0,1,83.23,66.88Zm-2.18,6.19a2.19,2.19,0,1,0,4.37,0V70.89a2.19,2.19,0,1,0-4.37,0Z"/><path class="cls-2" d="M94.51,73.1l2,3.78h-2l-1.81-3.62H91v3.62H89.16V67.09h4.32a3,3,0,0,1,3.14,3.08A2.9,2.9,0,0,1,94.51,73.1ZM91,71.52H93.3a1.35,1.35,0,1,0,0-2.69H91Z"/><path class="cls-2" d="M105.49,70v.42H103.7v-.28c0-1.1-.72-1.59-1.84-1.59s-1.58.49-1.58,1.14c0,.91.87,1.08,2,1.35l.12,0c2,.45,3.21,1.16,3.21,2.94,0,2-1.54,3.08-3.63,3.08-2.39,0-3.93-1.29-3.93-3.59v-.3h1.82v.22a1.89,1.89,0,0,0,2.17,2c1.19,0,1.75-.63,1.75-1.35s-.73-1.12-2-1.4l-.12,0c-2.11-.46-3.24-1.14-3.24-2.92s1.5-2.85,3.4-2.85C104,66.88,105.49,68,105.49,70Z"/><line class="cls-3" x1="204.88" y1="11.31" x2="204.88" y2="98.03"/><path class="cls-2" d="M215.72,40v8.09h4.54v1.71h-6.39V40Z"/><path class="cls-2" d="M227.82,40v1.71h-4.59V44h4.2v1.68h-4.2v2.39h4.68v1.71h-6.53V40Z"/><path class="cls-2" d="M230.42,40l2.17,8.16h.2L235,40h1.91l-2.72,9.8h-2.92L228.52,40Z"/><path class="cls-2" d="M244.34,40v1.71h-4.59V44H244v1.68h-4.2v2.39h4.67v1.71H237.9V40Z"/><path class="cls-2" d="M247.59,40v8.09h4.53v1.71h-6.38V40Z"/><path class="cls-2" d="M260.66,39.76a3.75,3.75,0,0,1,4,4.06V45.9a4,4,0,1,1-8.07,0V43.82A3.75,3.75,0,0,1,260.66,39.76ZM258.48,46a2.19,2.19,0,1,0,4.37,0V43.77a2.19,2.19,0,1,0-4.37,0Z"/><path class="cls-2" d="M272.28,40v1.73h-4.39V44H272v1.73h-4.11v4H266V40Z"/><path class="cls-2" d="M215.72,56.76v9.8h-1.85v-9.8Z"/><path class="cls-2" d="M220.74,56.76,223,64.83h.16V56.76H225v9.8h-3.27l-2.25-8.07h-.16v8.07h-1.85v-9.8Z"/><path class="cls-2" d="M233.84,56.76v1.71h-3v8.09H229V58.47h-3V56.76Z"/><path class="cls-2" d="M236.75,56.76v9.8H234.9v-9.8Z"/><path class="cls-2" d="M241.71,56.76l2,7.87h.17l2-7.87h3.23v9.8h-1.8V58.72h-.16l-2,7.84h-2.71l-2-7.84h-.17v7.84h-1.8v-9.8Z"/><path class="cls-2" d="M255.79,56.76l2.72,9.8H256.6L256,64.41h-3.45L252,66.56H250.1l2.72-9.8Zm-.21,5.94-1.19-4.4h-.17L253,62.7Z"/><path class="cls-2" d="M262.89,56.56c2.48,0,3.86,1.37,3.86,3.56v.33h-1.84v-.33a1.79,1.79,0,0,0-2-1.88,2.14,2.14,0,0,0-2.22,2.24v2.36a2.05,2.05,0,0,0,2.22,2.24c1.47,0,2-.77,2-1.88v-.33h1.84v.33c0,2.17-1.27,3.56-3.86,3.56a3.7,3.7,0,0,1-4.06-4V60.54A3.75,3.75,0,0,1,262.89,56.56Z"/><path class="cls-2" d="M268.92,56.76l2.14,4.17h.26l2.14-4.17h2.1l-3.45,6.48v3.32h-1.84V63.24l-3.45-6.48Z"/><path class="cls-2" d="M202.6,4.71h4.15v1.6H202.6Z"/><path class="cls-2" d="M204,105.12V103h1.65v2.13h2.1v1.59h-2.1v2.13H204v-2.13h-2.1v-1.59Z"/><rect class="cls-4" x="141.63" y="97.92" width="6" height="6" rx="3" ry="3"/><path class="cls-5" d="M126.24,67.92a37.4,37.4,0,0,1,37.4,0"/><path class="cls-5" d="M114.86,47.11a60.43,60.43,0,0,1,60.48,0"/><path class="cls-5" d="M102.75,26.35a84.86,84.86,0,0,1,84.9,0"/><path class="cls-5" d="M95.2,14.88l41.07,71.56a16.72,16.72,0,0,1,16.72,0l41.07-71.56"/><path class="cls-6" d="M145.1,49.34A8.57,8.57,0,1,1,151,47,8.51,8.51,0,0,1,145.1,49.34Z"/><path class="cls-1" d="M145.09,33.21a7.57,7.57,0,1,1-5.18,2.07h0a7.52,7.52,0,0,1,5.18-2.07m0-2h0a9.56,9.56,0,1,0,7,3,9.53,9.53,0,0,0-7-3Z"/><path class="cls-6" d="M145.1,19.77a4.84,4.84,0,0,1-3.5-1.51,4.81,4.81,0,0,1,3.5-8.11,4.81,4.81,0,0,1,0,9.62Z"/><path class="cls-1" d="M145.1,11.15a3.75,3.75,0,0,1,2.76,1.2,3.8,3.8,0,1,1-5.38-.16h0a3.84,3.84,0,0,1,2.62-1m0-2h0a5.82,5.82,0,0,0-5.81,5.64A5.83,5.83,0,0,0,140.87,19a5.89,5.89,0,0,0,4.23,1.82,5.81,5.81,0,0,0,4.22-9.8,5.85,5.85,0,0,0-4.22-1.82Z"/><path class="cls-6" d="M145.1,68.8A5.93,5.93,0,0,1,140.82,67a5.89,5.89,0,0,1,.24-8.32,5.89,5.89,0,1,1,4,10.17Z"/><path class="cls-1" d="M145.1,58a4.87,4.87,0,1,1-3.36,1.33h0A4.89,4.89,0,0,1,145.1,58m0-2h0a6.89,6.89,0,0,0-5,11.61,6.93,6.93,0,0,0,5,2.16,6.89,6.89,0,0,0,0-13.77Z"/><rect class="cls-1" x="110.14" y="56.81" width="29.88" height="12.21"/><line class="cls-3" x1="108.64" y1="62.91" x2="136.38" y2="62.91"/></g></svg>